%TF.GenerationSoftware,KiCad,Pcbnew,10.0.3*%
%TF.CreationDate,2026-06-19T14:35:49+02:00*%
%TF.ProjectId,pico2-drums,7069636f-322d-4647-9275-6d732e6b6963,rev?*%
%TF.SameCoordinates,Original*%
%TF.FileFunction,Paste,Top*%
%TF.FilePolarity,Positive*%
%FSLAX46Y46*%
G04 Gerber Fmt 4.6, Leading zero omitted, Abs format (unit mm)*
G04 Created by KiCad (PCBNEW 10.0.3) date 2026-06-19 14:35:49*
%MOMM*%
%LPD*%
G01*
G04 APERTURE LIST*
G04 Aperture macros list*
%AMRoundRect*
0 Rectangle with rounded corners*
0 $1 Rounding radius*
0 $2 $3 $4 $5 $6 $7 $8 $9 X,Y pos of 4 corners*
0 Add a 4 corners polygon primitive as box body*
4,1,4,$2,$3,$4,$5,$6,$7,$8,$9,$2,$3,0*
0 Add four circle primitives for the rounded corners*
1,1,$1+$1,$2,$3*
1,1,$1+$1,$4,$5*
1,1,$1+$1,$6,$7*
1,1,$1+$1,$8,$9*
0 Add four rect primitives between the rounded corners*
20,1,$1+$1,$2,$3,$4,$5,0*
20,1,$1+$1,$4,$5,$6,$7,0*
20,1,$1+$1,$6,$7,$8,$9,0*
20,1,$1+$1,$8,$9,$2,$3,0*%
G04 Aperture macros list end*
%ADD10RoundRect,0.100000X-0.100000X0.637500X-0.100000X-0.637500X0.100000X-0.637500X0.100000X0.637500X0*%
%ADD11RoundRect,0.250000X0.650000X-0.325000X0.650000X0.325000X-0.650000X0.325000X-0.650000X-0.325000X0*%
%ADD12RoundRect,0.250000X-1.500000X-0.550000X1.500000X-0.550000X1.500000X0.550000X-1.500000X0.550000X0*%
%ADD13RoundRect,0.250000X1.500000X0.550000X-1.500000X0.550000X-1.500000X-0.550000X1.500000X-0.550000X0*%
%ADD14RoundRect,0.250000X0.625000X-0.312500X0.625000X0.312500X-0.625000X0.312500X-0.625000X-0.312500X0*%
%ADD15RoundRect,0.250000X0.325000X0.650000X-0.325000X0.650000X-0.325000X-0.650000X0.325000X-0.650000X0*%
%ADD16RoundRect,0.250000X-0.325000X-0.650000X0.325000X-0.650000X0.325000X0.650000X-0.325000X0.650000X0*%
%ADD17RoundRect,0.100000X-0.637500X-0.100000X0.637500X-0.100000X0.637500X0.100000X-0.637500X0.100000X0*%
%ADD18RoundRect,0.250000X-0.650000X0.325000X-0.650000X-0.325000X0.650000X-0.325000X0.650000X0.325000X0*%
%ADD19RoundRect,0.250000X-0.625000X0.312500X-0.625000X-0.312500X0.625000X-0.312500X0.625000X0.312500X0*%
%ADD20RoundRect,0.150000X-0.587500X-0.150000X0.587500X-0.150000X0.587500X0.150000X-0.587500X0.150000X0*%
%ADD21RoundRect,0.250000X-0.550000X1.500000X-0.550000X-1.500000X0.550000X-1.500000X0.550000X1.500000X0*%
%ADD22RoundRect,0.250000X1.000000X-1.500000X1.000000X1.500000X-1.000000X1.500000X-1.000000X-1.500000X0*%
G04 APERTURE END LIST*
D10*
%TO.C,U2*%
X171604361Y-87533139D03*
X170954361Y-87533139D03*
X170304361Y-87533139D03*
X169654361Y-87533139D03*
X169004361Y-87533139D03*
X168354361Y-87533139D03*
X167704361Y-87533139D03*
X167054361Y-87533139D03*
X167054361Y-81808139D03*
X167704361Y-81808139D03*
X168354361Y-81808139D03*
X169004361Y-81808139D03*
X169654361Y-81808139D03*
X170304361Y-81808139D03*
X170954361Y-81808139D03*
X171604361Y-81808139D03*
%TD*%
D11*
%TO.C,C6*%
X176829361Y-85145639D03*
X176829361Y-82195639D03*
%TD*%
D12*
%TO.C,C11*%
X168529361Y-96670639D03*
X174129361Y-96670639D03*
%TD*%
D13*
%TO.C,C8*%
X180191861Y-115195639D03*
X174591861Y-115195639D03*
%TD*%
D14*
%TO.C,R1*%
X152304361Y-86633139D03*
X152304361Y-83708139D03*
%TD*%
%TO.C,R7*%
X163329361Y-107633139D03*
X163329361Y-104708139D03*
%TD*%
%TO.C,R5*%
X182829361Y-82595639D03*
X182829361Y-79670639D03*
%TD*%
D15*
%TO.C,C7*%
X163304361Y-86670639D03*
X160354361Y-86670639D03*
%TD*%
D16*
%TO.C,C14*%
X190854361Y-104695639D03*
X193804361Y-104695639D03*
%TD*%
D17*
%TO.C,U1*%
X181466861Y-103245639D03*
X181466861Y-103895639D03*
X181466861Y-104545639D03*
X181466861Y-105195639D03*
X181466861Y-105845639D03*
X181466861Y-106495639D03*
X181466861Y-107145639D03*
X181466861Y-107795639D03*
X181466861Y-108445639D03*
X181466861Y-109095639D03*
X187191861Y-109095639D03*
X187191861Y-108445639D03*
X187191861Y-107795639D03*
X187191861Y-107145639D03*
X187191861Y-106495639D03*
X187191861Y-105845639D03*
X187191861Y-105195639D03*
X187191861Y-104545639D03*
X187191861Y-103895639D03*
X187191861Y-103245639D03*
%TD*%
D18*
%TO.C,C10*%
X187829361Y-79695639D03*
X187829361Y-82645639D03*
%TD*%
D12*
%TO.C,C13*%
X190529361Y-96670639D03*
X196129361Y-96670639D03*
%TD*%
D19*
%TO.C,R6*%
X139829361Y-83208139D03*
X139829361Y-86133139D03*
%TD*%
D20*
%TO.C,U3*%
X155954361Y-81220639D03*
X155954361Y-83120639D03*
X157829361Y-82170639D03*
%TD*%
D21*
%TO.C,C15*%
X194829361Y-111870639D03*
X194829361Y-117470639D03*
%TD*%
D18*
%TO.C,C16*%
X186329361Y-114195639D03*
X186329361Y-117145639D03*
%TD*%
D21*
%TO.C,C3*%
X166691861Y-112395639D03*
X166691861Y-117995639D03*
%TD*%
D19*
%TO.C,R3*%
X139829361Y-88370639D03*
X139829361Y-91295639D03*
%TD*%
D14*
%TO.C,R2*%
X144829361Y-86058139D03*
X144829361Y-83133139D03*
%TD*%
D19*
%TO.C,R4*%
X182829361Y-85670639D03*
X182829361Y-88595639D03*
%TD*%
D11*
%TO.C,C9*%
X187829361Y-88645639D03*
X187829361Y-85695639D03*
%TD*%
D18*
%TO.C,C1*%
X177691861Y-106220639D03*
X177691861Y-109170639D03*
%TD*%
D22*
%TO.C,C17*%
X113579361Y-88845639D03*
X113579361Y-82345639D03*
%TD*%
D13*
%TO.C,C2*%
X185629361Y-96670639D03*
X180029361Y-96670639D03*
%TD*%
D16*
%TO.C,C12*%
X169854361Y-102670639D03*
X172804361Y-102670639D03*
%TD*%
%TO.C,C5*%
X155354361Y-86670639D03*
X158304361Y-86670639D03*
%TD*%
M02*
