%TF.GenerationSoftware,KiCad,Pcbnew,10.0.3*%
%TF.CreationDate,2026-06-19T14:35:49+02:00*%
%TF.ProjectId,pico2-drums,7069636f-322d-4647-9275-6d732e6b6963,rev?*%
%TF.SameCoordinates,Original*%
%TF.FileFunction,Legend,Top*%
%TF.FilePolarity,Positive*%
%FSLAX46Y46*%
G04 Gerber Fmt 4.6, Leading zero omitted, Abs format (unit mm)*
G04 Created by KiCad (PCBNEW 10.0.3) date 2026-06-19 14:35:49*
%MOMM*%
%LPD*%
G01*
G04 APERTURE LIST*
%ADD10C,0.150000*%
%ADD11C,0.120000*%
G04 APERTURE END LIST*
D10*
X172234180Y-85432543D02*
X173043703Y-85432543D01*
X173043703Y-85432543D02*
X173138941Y-85384924D01*
X173138941Y-85384924D02*
X173186561Y-85337305D01*
X173186561Y-85337305D02*
X173234180Y-85242067D01*
X173234180Y-85242067D02*
X173234180Y-85051591D01*
X173234180Y-85051591D02*
X173186561Y-84956353D01*
X173186561Y-84956353D02*
X173138941Y-84908734D01*
X173138941Y-84908734D02*
X173043703Y-84861115D01*
X173043703Y-84861115D02*
X172234180Y-84861115D01*
X172329418Y-84432543D02*
X172281799Y-84384924D01*
X172281799Y-84384924D02*
X172234180Y-84289686D01*
X172234180Y-84289686D02*
X172234180Y-84051591D01*
X172234180Y-84051591D02*
X172281799Y-83956353D01*
X172281799Y-83956353D02*
X172329418Y-83908734D01*
X172329418Y-83908734D02*
X172424656Y-83861115D01*
X172424656Y-83861115D02*
X172519894Y-83861115D01*
X172519894Y-83861115D02*
X172662751Y-83908734D01*
X172662751Y-83908734D02*
X173234180Y-84480162D01*
X173234180Y-84480162D02*
X173234180Y-83861115D01*
X122461027Y-88795458D02*
X122461027Y-89509743D01*
X122461027Y-89509743D02*
X122413408Y-89652600D01*
X122413408Y-89652600D02*
X122318170Y-89747839D01*
X122318170Y-89747839D02*
X122175313Y-89795458D01*
X122175313Y-89795458D02*
X122080075Y-89795458D01*
X122841980Y-88795458D02*
X123508646Y-88795458D01*
X123508646Y-88795458D02*
X123080075Y-89795458D01*
X151234122Y-76625458D02*
X150900789Y-76149267D01*
X150662694Y-76625458D02*
X150662694Y-75625458D01*
X150662694Y-75625458D02*
X151043646Y-75625458D01*
X151043646Y-75625458D02*
X151138884Y-75673077D01*
X151138884Y-75673077D02*
X151186503Y-75720696D01*
X151186503Y-75720696D02*
X151234122Y-75815934D01*
X151234122Y-75815934D02*
X151234122Y-75958791D01*
X151234122Y-75958791D02*
X151186503Y-76054029D01*
X151186503Y-76054029D02*
X151138884Y-76101648D01*
X151138884Y-76101648D02*
X151043646Y-76149267D01*
X151043646Y-76149267D02*
X150662694Y-76149267D01*
X151519837Y-75625458D02*
X151853170Y-76625458D01*
X151853170Y-76625458D02*
X152186503Y-75625458D01*
X152996027Y-75625458D02*
X152519837Y-75625458D01*
X152519837Y-75625458D02*
X152472218Y-76101648D01*
X152472218Y-76101648D02*
X152519837Y-76054029D01*
X152519837Y-76054029D02*
X152615075Y-76006410D01*
X152615075Y-76006410D02*
X152853170Y-76006410D01*
X152853170Y-76006410D02*
X152948408Y-76054029D01*
X152948408Y-76054029D02*
X152996027Y-76101648D01*
X152996027Y-76101648D02*
X153043646Y-76196886D01*
X153043646Y-76196886D02*
X153043646Y-76434981D01*
X153043646Y-76434981D02*
X152996027Y-76530219D01*
X152996027Y-76530219D02*
X152948408Y-76577839D01*
X152948408Y-76577839D02*
X152853170Y-76625458D01*
X152853170Y-76625458D02*
X152615075Y-76625458D01*
X152615075Y-76625458D02*
X152519837Y-76577839D01*
X152519837Y-76577839D02*
X152472218Y-76530219D01*
X175338941Y-83837305D02*
X175386561Y-83884924D01*
X175386561Y-83884924D02*
X175434180Y-84027781D01*
X175434180Y-84027781D02*
X175434180Y-84123019D01*
X175434180Y-84123019D02*
X175386561Y-84265876D01*
X175386561Y-84265876D02*
X175291322Y-84361114D01*
X175291322Y-84361114D02*
X175196084Y-84408733D01*
X175196084Y-84408733D02*
X175005608Y-84456352D01*
X175005608Y-84456352D02*
X174862751Y-84456352D01*
X174862751Y-84456352D02*
X174672275Y-84408733D01*
X174672275Y-84408733D02*
X174577037Y-84361114D01*
X174577037Y-84361114D02*
X174481799Y-84265876D01*
X174481799Y-84265876D02*
X174434180Y-84123019D01*
X174434180Y-84123019D02*
X174434180Y-84027781D01*
X174434180Y-84027781D02*
X174481799Y-83884924D01*
X174481799Y-83884924D02*
X174529418Y-83837305D01*
X174434180Y-82980162D02*
X174434180Y-83170638D01*
X174434180Y-83170638D02*
X174481799Y-83265876D01*
X174481799Y-83265876D02*
X174529418Y-83313495D01*
X174529418Y-83313495D02*
X174672275Y-83408733D01*
X174672275Y-83408733D02*
X174862751Y-83456352D01*
X174862751Y-83456352D02*
X175243703Y-83456352D01*
X175243703Y-83456352D02*
X175338941Y-83408733D01*
X175338941Y-83408733D02*
X175386561Y-83361114D01*
X175386561Y-83361114D02*
X175434180Y-83265876D01*
X175434180Y-83265876D02*
X175434180Y-83075400D01*
X175434180Y-83075400D02*
X175386561Y-82980162D01*
X175386561Y-82980162D02*
X175338941Y-82932543D01*
X175338941Y-82932543D02*
X175243703Y-82884924D01*
X175243703Y-82884924D02*
X175005608Y-82884924D01*
X175005608Y-82884924D02*
X174910370Y-82932543D01*
X174910370Y-82932543D02*
X174862751Y-82980162D01*
X174862751Y-82980162D02*
X174815132Y-83075400D01*
X174815132Y-83075400D02*
X174815132Y-83265876D01*
X174815132Y-83265876D02*
X174862751Y-83361114D01*
X174862751Y-83361114D02*
X174910370Y-83408733D01*
X174910370Y-83408733D02*
X175005608Y-83456352D01*
X126996028Y-82347839D02*
X127138885Y-82395458D01*
X127138885Y-82395458D02*
X127376980Y-82395458D01*
X127376980Y-82395458D02*
X127472218Y-82347839D01*
X127472218Y-82347839D02*
X127519837Y-82300219D01*
X127519837Y-82300219D02*
X127567456Y-82204981D01*
X127567456Y-82204981D02*
X127567456Y-82109743D01*
X127567456Y-82109743D02*
X127519837Y-82014505D01*
X127519837Y-82014505D02*
X127472218Y-81966886D01*
X127472218Y-81966886D02*
X127376980Y-81919267D01*
X127376980Y-81919267D02*
X127186504Y-81871648D01*
X127186504Y-81871648D02*
X127091266Y-81824029D01*
X127091266Y-81824029D02*
X127043647Y-81776410D01*
X127043647Y-81776410D02*
X126996028Y-81681172D01*
X126996028Y-81681172D02*
X126996028Y-81585934D01*
X126996028Y-81585934D02*
X127043647Y-81490696D01*
X127043647Y-81490696D02*
X127091266Y-81443077D01*
X127091266Y-81443077D02*
X127186504Y-81395458D01*
X127186504Y-81395458D02*
X127424599Y-81395458D01*
X127424599Y-81395458D02*
X127567456Y-81443077D01*
X127900790Y-81395458D02*
X128138885Y-82395458D01*
X128138885Y-82395458D02*
X128329361Y-81681172D01*
X128329361Y-81681172D02*
X128519837Y-82395458D01*
X128519837Y-82395458D02*
X128757933Y-81395458D01*
X129662694Y-82395458D02*
X129091266Y-82395458D01*
X129376980Y-82395458D02*
X129376980Y-81395458D01*
X129376980Y-81395458D02*
X129281742Y-81538315D01*
X129281742Y-81538315D02*
X129186504Y-81633553D01*
X129186504Y-81633553D02*
X129091266Y-81681172D01*
X170686503Y-92680219D02*
X170638884Y-92727839D01*
X170638884Y-92727839D02*
X170496027Y-92775458D01*
X170496027Y-92775458D02*
X170400789Y-92775458D01*
X170400789Y-92775458D02*
X170257932Y-92727839D01*
X170257932Y-92727839D02*
X170162694Y-92632600D01*
X170162694Y-92632600D02*
X170115075Y-92537362D01*
X170115075Y-92537362D02*
X170067456Y-92346886D01*
X170067456Y-92346886D02*
X170067456Y-92204029D01*
X170067456Y-92204029D02*
X170115075Y-92013553D01*
X170115075Y-92013553D02*
X170162694Y-91918315D01*
X170162694Y-91918315D02*
X170257932Y-91823077D01*
X170257932Y-91823077D02*
X170400789Y-91775458D01*
X170400789Y-91775458D02*
X170496027Y-91775458D01*
X170496027Y-91775458D02*
X170638884Y-91823077D01*
X170638884Y-91823077D02*
X170686503Y-91870696D01*
X171638884Y-92775458D02*
X171067456Y-92775458D01*
X171353170Y-92775458D02*
X171353170Y-91775458D01*
X171353170Y-91775458D02*
X171257932Y-91918315D01*
X171257932Y-91918315D02*
X171162694Y-92013553D01*
X171162694Y-92013553D02*
X171067456Y-92061172D01*
X172591265Y-92775458D02*
X172019837Y-92775458D01*
X172305551Y-92775458D02*
X172305551Y-91775458D01*
X172305551Y-91775458D02*
X172210313Y-91918315D01*
X172210313Y-91918315D02*
X172115075Y-92013553D01*
X172115075Y-92013553D02*
X172019837Y-92061172D01*
X177225194Y-119905219D02*
X177177575Y-119952839D01*
X177177575Y-119952839D02*
X177034718Y-120000458D01*
X177034718Y-120000458D02*
X176939480Y-120000458D01*
X176939480Y-120000458D02*
X176796623Y-119952839D01*
X176796623Y-119952839D02*
X176701385Y-119857600D01*
X176701385Y-119857600D02*
X176653766Y-119762362D01*
X176653766Y-119762362D02*
X176606147Y-119571886D01*
X176606147Y-119571886D02*
X176606147Y-119429029D01*
X176606147Y-119429029D02*
X176653766Y-119238553D01*
X176653766Y-119238553D02*
X176701385Y-119143315D01*
X176701385Y-119143315D02*
X176796623Y-119048077D01*
X176796623Y-119048077D02*
X176939480Y-119000458D01*
X176939480Y-119000458D02*
X177034718Y-119000458D01*
X177034718Y-119000458D02*
X177177575Y-119048077D01*
X177177575Y-119048077D02*
X177225194Y-119095696D01*
X177796623Y-119429029D02*
X177701385Y-119381410D01*
X177701385Y-119381410D02*
X177653766Y-119333791D01*
X177653766Y-119333791D02*
X177606147Y-119238553D01*
X177606147Y-119238553D02*
X177606147Y-119190934D01*
X177606147Y-119190934D02*
X177653766Y-119095696D01*
X177653766Y-119095696D02*
X177701385Y-119048077D01*
X177701385Y-119048077D02*
X177796623Y-119000458D01*
X177796623Y-119000458D02*
X177987099Y-119000458D01*
X177987099Y-119000458D02*
X178082337Y-119048077D01*
X178082337Y-119048077D02*
X178129956Y-119095696D01*
X178129956Y-119095696D02*
X178177575Y-119190934D01*
X178177575Y-119190934D02*
X178177575Y-119238553D01*
X178177575Y-119238553D02*
X178129956Y-119333791D01*
X178129956Y-119333791D02*
X178082337Y-119381410D01*
X178082337Y-119381410D02*
X177987099Y-119429029D01*
X177987099Y-119429029D02*
X177796623Y-119429029D01*
X177796623Y-119429029D02*
X177701385Y-119476648D01*
X177701385Y-119476648D02*
X177653766Y-119524267D01*
X177653766Y-119524267D02*
X177606147Y-119619505D01*
X177606147Y-119619505D02*
X177606147Y-119809981D01*
X177606147Y-119809981D02*
X177653766Y-119905219D01*
X177653766Y-119905219D02*
X177701385Y-119952839D01*
X177701385Y-119952839D02*
X177796623Y-120000458D01*
X177796623Y-120000458D02*
X177987099Y-120000458D01*
X177987099Y-120000458D02*
X178082337Y-119952839D01*
X178082337Y-119952839D02*
X178129956Y-119905219D01*
X178129956Y-119905219D02*
X178177575Y-119809981D01*
X178177575Y-119809981D02*
X178177575Y-119619505D01*
X178177575Y-119619505D02*
X178129956Y-119524267D01*
X178129956Y-119524267D02*
X178082337Y-119476648D01*
X178082337Y-119476648D02*
X177987099Y-119429029D01*
X150929180Y-85337305D02*
X150452989Y-85670638D01*
X150929180Y-85908733D02*
X149929180Y-85908733D01*
X149929180Y-85908733D02*
X149929180Y-85527781D01*
X149929180Y-85527781D02*
X149976799Y-85432543D01*
X149976799Y-85432543D02*
X150024418Y-85384924D01*
X150024418Y-85384924D02*
X150119656Y-85337305D01*
X150119656Y-85337305D02*
X150262513Y-85337305D01*
X150262513Y-85337305D02*
X150357751Y-85384924D01*
X150357751Y-85384924D02*
X150405370Y-85432543D01*
X150405370Y-85432543D02*
X150452989Y-85527781D01*
X150452989Y-85527781D02*
X150452989Y-85908733D01*
X150929180Y-84384924D02*
X150929180Y-84956352D01*
X150929180Y-84670638D02*
X149929180Y-84670638D01*
X149929180Y-84670638D02*
X150072037Y-84765876D01*
X150072037Y-84765876D02*
X150167275Y-84861114D01*
X150167275Y-84861114D02*
X150214894Y-84956352D01*
X161954180Y-106337305D02*
X161477989Y-106670638D01*
X161954180Y-106908733D02*
X160954180Y-106908733D01*
X160954180Y-106908733D02*
X160954180Y-106527781D01*
X160954180Y-106527781D02*
X161001799Y-106432543D01*
X161001799Y-106432543D02*
X161049418Y-106384924D01*
X161049418Y-106384924D02*
X161144656Y-106337305D01*
X161144656Y-106337305D02*
X161287513Y-106337305D01*
X161287513Y-106337305D02*
X161382751Y-106384924D01*
X161382751Y-106384924D02*
X161430370Y-106432543D01*
X161430370Y-106432543D02*
X161477989Y-106527781D01*
X161477989Y-106527781D02*
X161477989Y-106908733D01*
X160954180Y-106003971D02*
X160954180Y-105337305D01*
X160954180Y-105337305D02*
X161954180Y-105765876D01*
X181454180Y-81299805D02*
X180977989Y-81633138D01*
X181454180Y-81871233D02*
X180454180Y-81871233D01*
X180454180Y-81871233D02*
X180454180Y-81490281D01*
X180454180Y-81490281D02*
X180501799Y-81395043D01*
X180501799Y-81395043D02*
X180549418Y-81347424D01*
X180549418Y-81347424D02*
X180644656Y-81299805D01*
X180644656Y-81299805D02*
X180787513Y-81299805D01*
X180787513Y-81299805D02*
X180882751Y-81347424D01*
X180882751Y-81347424D02*
X180930370Y-81395043D01*
X180930370Y-81395043D02*
X180977989Y-81490281D01*
X180977989Y-81490281D02*
X180977989Y-81871233D01*
X180454180Y-80395043D02*
X180454180Y-80871233D01*
X180454180Y-80871233D02*
X180930370Y-80918852D01*
X180930370Y-80918852D02*
X180882751Y-80871233D01*
X180882751Y-80871233D02*
X180835132Y-80775995D01*
X180835132Y-80775995D02*
X180835132Y-80537900D01*
X180835132Y-80537900D02*
X180882751Y-80442662D01*
X180882751Y-80442662D02*
X180930370Y-80395043D01*
X180930370Y-80395043D02*
X181025608Y-80347424D01*
X181025608Y-80347424D02*
X181263703Y-80347424D01*
X181263703Y-80347424D02*
X181358941Y-80395043D01*
X181358941Y-80395043D02*
X181406561Y-80442662D01*
X181406561Y-80442662D02*
X181454180Y-80537900D01*
X181454180Y-80537900D02*
X181454180Y-80775995D01*
X181454180Y-80775995D02*
X181406561Y-80871233D01*
X181406561Y-80871233D02*
X181358941Y-80918852D01*
X161662694Y-88880219D02*
X161615075Y-88927839D01*
X161615075Y-88927839D02*
X161472218Y-88975458D01*
X161472218Y-88975458D02*
X161376980Y-88975458D01*
X161376980Y-88975458D02*
X161234123Y-88927839D01*
X161234123Y-88927839D02*
X161138885Y-88832600D01*
X161138885Y-88832600D02*
X161091266Y-88737362D01*
X161091266Y-88737362D02*
X161043647Y-88546886D01*
X161043647Y-88546886D02*
X161043647Y-88404029D01*
X161043647Y-88404029D02*
X161091266Y-88213553D01*
X161091266Y-88213553D02*
X161138885Y-88118315D01*
X161138885Y-88118315D02*
X161234123Y-88023077D01*
X161234123Y-88023077D02*
X161376980Y-87975458D01*
X161376980Y-87975458D02*
X161472218Y-87975458D01*
X161472218Y-87975458D02*
X161615075Y-88023077D01*
X161615075Y-88023077D02*
X161662694Y-88070696D01*
X161996028Y-87975458D02*
X162662694Y-87975458D01*
X162662694Y-87975458D02*
X162234123Y-88975458D01*
X191686503Y-103205219D02*
X191638884Y-103252839D01*
X191638884Y-103252839D02*
X191496027Y-103300458D01*
X191496027Y-103300458D02*
X191400789Y-103300458D01*
X191400789Y-103300458D02*
X191257932Y-103252839D01*
X191257932Y-103252839D02*
X191162694Y-103157600D01*
X191162694Y-103157600D02*
X191115075Y-103062362D01*
X191115075Y-103062362D02*
X191067456Y-102871886D01*
X191067456Y-102871886D02*
X191067456Y-102729029D01*
X191067456Y-102729029D02*
X191115075Y-102538553D01*
X191115075Y-102538553D02*
X191162694Y-102443315D01*
X191162694Y-102443315D02*
X191257932Y-102348077D01*
X191257932Y-102348077D02*
X191400789Y-102300458D01*
X191400789Y-102300458D02*
X191496027Y-102300458D01*
X191496027Y-102300458D02*
X191638884Y-102348077D01*
X191638884Y-102348077D02*
X191686503Y-102395696D01*
X192638884Y-103300458D02*
X192067456Y-103300458D01*
X192353170Y-103300458D02*
X192353170Y-102300458D01*
X192353170Y-102300458D02*
X192257932Y-102443315D01*
X192257932Y-102443315D02*
X192162694Y-102538553D01*
X192162694Y-102538553D02*
X192067456Y-102586172D01*
X193496027Y-102633791D02*
X193496027Y-103300458D01*
X193257932Y-102252839D02*
X193019837Y-102967124D01*
X193019837Y-102967124D02*
X193638884Y-102967124D01*
X185067456Y-101425458D02*
X185067456Y-102234981D01*
X185067456Y-102234981D02*
X185115075Y-102330219D01*
X185115075Y-102330219D02*
X185162694Y-102377839D01*
X185162694Y-102377839D02*
X185257932Y-102425458D01*
X185257932Y-102425458D02*
X185448408Y-102425458D01*
X185448408Y-102425458D02*
X185543646Y-102377839D01*
X185543646Y-102377839D02*
X185591265Y-102330219D01*
X185591265Y-102330219D02*
X185638884Y-102234981D01*
X185638884Y-102234981D02*
X185638884Y-101425458D01*
X186638884Y-102425458D02*
X186067456Y-102425458D01*
X186353170Y-102425458D02*
X186353170Y-101425458D01*
X186353170Y-101425458D02*
X186257932Y-101568315D01*
X186257932Y-101568315D02*
X186162694Y-101663553D01*
X186162694Y-101663553D02*
X186067456Y-101711172D01*
X190038941Y-81813496D02*
X190086561Y-81861115D01*
X190086561Y-81861115D02*
X190134180Y-82003972D01*
X190134180Y-82003972D02*
X190134180Y-82099210D01*
X190134180Y-82099210D02*
X190086561Y-82242067D01*
X190086561Y-82242067D02*
X189991322Y-82337305D01*
X189991322Y-82337305D02*
X189896084Y-82384924D01*
X189896084Y-82384924D02*
X189705608Y-82432543D01*
X189705608Y-82432543D02*
X189562751Y-82432543D01*
X189562751Y-82432543D02*
X189372275Y-82384924D01*
X189372275Y-82384924D02*
X189277037Y-82337305D01*
X189277037Y-82337305D02*
X189181799Y-82242067D01*
X189181799Y-82242067D02*
X189134180Y-82099210D01*
X189134180Y-82099210D02*
X189134180Y-82003972D01*
X189134180Y-82003972D02*
X189181799Y-81861115D01*
X189181799Y-81861115D02*
X189229418Y-81813496D01*
X190134180Y-80861115D02*
X190134180Y-81432543D01*
X190134180Y-81146829D02*
X189134180Y-81146829D01*
X189134180Y-81146829D02*
X189277037Y-81242067D01*
X189277037Y-81242067D02*
X189372275Y-81337305D01*
X189372275Y-81337305D02*
X189419894Y-81432543D01*
X189134180Y-80242067D02*
X189134180Y-80146829D01*
X189134180Y-80146829D02*
X189181799Y-80051591D01*
X189181799Y-80051591D02*
X189229418Y-80003972D01*
X189229418Y-80003972D02*
X189324656Y-79956353D01*
X189324656Y-79956353D02*
X189515132Y-79908734D01*
X189515132Y-79908734D02*
X189753227Y-79908734D01*
X189753227Y-79908734D02*
X189943703Y-79956353D01*
X189943703Y-79956353D02*
X190038941Y-80003972D01*
X190038941Y-80003972D02*
X190086561Y-80051591D01*
X190086561Y-80051591D02*
X190134180Y-80146829D01*
X190134180Y-80146829D02*
X190134180Y-80242067D01*
X190134180Y-80242067D02*
X190086561Y-80337305D01*
X190086561Y-80337305D02*
X190038941Y-80384924D01*
X190038941Y-80384924D02*
X189943703Y-80432543D01*
X189943703Y-80432543D02*
X189753227Y-80480162D01*
X189753227Y-80480162D02*
X189515132Y-80480162D01*
X189515132Y-80480162D02*
X189324656Y-80432543D01*
X189324656Y-80432543D02*
X189229418Y-80384924D01*
X189229418Y-80384924D02*
X189181799Y-80337305D01*
X189181799Y-80337305D02*
X189134180Y-80242067D01*
X192686503Y-92680219D02*
X192638884Y-92727839D01*
X192638884Y-92727839D02*
X192496027Y-92775458D01*
X192496027Y-92775458D02*
X192400789Y-92775458D01*
X192400789Y-92775458D02*
X192257932Y-92727839D01*
X192257932Y-92727839D02*
X192162694Y-92632600D01*
X192162694Y-92632600D02*
X192115075Y-92537362D01*
X192115075Y-92537362D02*
X192067456Y-92346886D01*
X192067456Y-92346886D02*
X192067456Y-92204029D01*
X192067456Y-92204029D02*
X192115075Y-92013553D01*
X192115075Y-92013553D02*
X192162694Y-91918315D01*
X192162694Y-91918315D02*
X192257932Y-91823077D01*
X192257932Y-91823077D02*
X192400789Y-91775458D01*
X192400789Y-91775458D02*
X192496027Y-91775458D01*
X192496027Y-91775458D02*
X192638884Y-91823077D01*
X192638884Y-91823077D02*
X192686503Y-91870696D01*
X193638884Y-92775458D02*
X193067456Y-92775458D01*
X193353170Y-92775458D02*
X193353170Y-91775458D01*
X193353170Y-91775458D02*
X193257932Y-91918315D01*
X193257932Y-91918315D02*
X193162694Y-92013553D01*
X193162694Y-92013553D02*
X193067456Y-92061172D01*
X193972218Y-91775458D02*
X194591265Y-91775458D01*
X194591265Y-91775458D02*
X194257932Y-92156410D01*
X194257932Y-92156410D02*
X194400789Y-92156410D01*
X194400789Y-92156410D02*
X194496027Y-92204029D01*
X194496027Y-92204029D02*
X194543646Y-92251648D01*
X194543646Y-92251648D02*
X194591265Y-92346886D01*
X194591265Y-92346886D02*
X194591265Y-92584981D01*
X194591265Y-92584981D02*
X194543646Y-92680219D01*
X194543646Y-92680219D02*
X194496027Y-92727839D01*
X194496027Y-92727839D02*
X194400789Y-92775458D01*
X194400789Y-92775458D02*
X194115075Y-92775458D01*
X194115075Y-92775458D02*
X194019837Y-92727839D01*
X194019837Y-92727839D02*
X193972218Y-92680219D01*
X185734122Y-76625458D02*
X185400789Y-76149267D01*
X185162694Y-76625458D02*
X185162694Y-75625458D01*
X185162694Y-75625458D02*
X185543646Y-75625458D01*
X185543646Y-75625458D02*
X185638884Y-75673077D01*
X185638884Y-75673077D02*
X185686503Y-75720696D01*
X185686503Y-75720696D02*
X185734122Y-75815934D01*
X185734122Y-75815934D02*
X185734122Y-75958791D01*
X185734122Y-75958791D02*
X185686503Y-76054029D01*
X185686503Y-76054029D02*
X185638884Y-76101648D01*
X185638884Y-76101648D02*
X185543646Y-76149267D01*
X185543646Y-76149267D02*
X185162694Y-76149267D01*
X186019837Y-75625458D02*
X186353170Y-76625458D01*
X186353170Y-76625458D02*
X186686503Y-75625458D01*
X186972218Y-75720696D02*
X187019837Y-75673077D01*
X187019837Y-75673077D02*
X187115075Y-75625458D01*
X187115075Y-75625458D02*
X187353170Y-75625458D01*
X187353170Y-75625458D02*
X187448408Y-75673077D01*
X187448408Y-75673077D02*
X187496027Y-75720696D01*
X187496027Y-75720696D02*
X187543646Y-75815934D01*
X187543646Y-75815934D02*
X187543646Y-75911172D01*
X187543646Y-75911172D02*
X187496027Y-76054029D01*
X187496027Y-76054029D02*
X186924599Y-76625458D01*
X186924599Y-76625458D02*
X187543646Y-76625458D01*
X190629180Y-81503972D02*
X191343465Y-81503972D01*
X191343465Y-81503972D02*
X191486322Y-81551591D01*
X191486322Y-81551591D02*
X191581561Y-81646829D01*
X191581561Y-81646829D02*
X191629180Y-81789686D01*
X191629180Y-81789686D02*
X191629180Y-81884924D01*
X190629180Y-80551591D02*
X190629180Y-81027781D01*
X190629180Y-81027781D02*
X191105370Y-81075400D01*
X191105370Y-81075400D02*
X191057751Y-81027781D01*
X191057751Y-81027781D02*
X191010132Y-80932543D01*
X191010132Y-80932543D02*
X191010132Y-80694448D01*
X191010132Y-80694448D02*
X191057751Y-80599210D01*
X191057751Y-80599210D02*
X191105370Y-80551591D01*
X191105370Y-80551591D02*
X191200608Y-80503972D01*
X191200608Y-80503972D02*
X191438703Y-80503972D01*
X191438703Y-80503972D02*
X191533941Y-80551591D01*
X191533941Y-80551591D02*
X191581561Y-80599210D01*
X191581561Y-80599210D02*
X191629180Y-80694448D01*
X191629180Y-80694448D02*
X191629180Y-80932543D01*
X191629180Y-80932543D02*
X191581561Y-81027781D01*
X191581561Y-81027781D02*
X191533941Y-81075400D01*
X133996027Y-88705458D02*
X133996027Y-89419743D01*
X133996027Y-89419743D02*
X133948408Y-89562600D01*
X133948408Y-89562600D02*
X133853170Y-89657839D01*
X133853170Y-89657839D02*
X133710313Y-89705458D01*
X133710313Y-89705458D02*
X133615075Y-89705458D01*
X134900789Y-88705458D02*
X134710313Y-88705458D01*
X134710313Y-88705458D02*
X134615075Y-88753077D01*
X134615075Y-88753077D02*
X134567456Y-88800696D01*
X134567456Y-88800696D02*
X134472218Y-88943553D01*
X134472218Y-88943553D02*
X134424599Y-89134029D01*
X134424599Y-89134029D02*
X134424599Y-89514981D01*
X134424599Y-89514981D02*
X134472218Y-89610219D01*
X134472218Y-89610219D02*
X134519837Y-89657839D01*
X134519837Y-89657839D02*
X134615075Y-89705458D01*
X134615075Y-89705458D02*
X134805551Y-89705458D01*
X134805551Y-89705458D02*
X134900789Y-89657839D01*
X134900789Y-89657839D02*
X134948408Y-89610219D01*
X134948408Y-89610219D02*
X134996027Y-89514981D01*
X134996027Y-89514981D02*
X134996027Y-89276886D01*
X134996027Y-89276886D02*
X134948408Y-89181648D01*
X134948408Y-89181648D02*
X134900789Y-89134029D01*
X134900789Y-89134029D02*
X134805551Y-89086410D01*
X134805551Y-89086410D02*
X134615075Y-89086410D01*
X134615075Y-89086410D02*
X134519837Y-89134029D01*
X134519837Y-89134029D02*
X134472218Y-89181648D01*
X134472218Y-89181648D02*
X134424599Y-89276886D01*
X174234122Y-76625458D02*
X173900789Y-76149267D01*
X173662694Y-76625458D02*
X173662694Y-75625458D01*
X173662694Y-75625458D02*
X174043646Y-75625458D01*
X174043646Y-75625458D02*
X174138884Y-75673077D01*
X174138884Y-75673077D02*
X174186503Y-75720696D01*
X174186503Y-75720696D02*
X174234122Y-75815934D01*
X174234122Y-75815934D02*
X174234122Y-75958791D01*
X174234122Y-75958791D02*
X174186503Y-76054029D01*
X174186503Y-76054029D02*
X174138884Y-76101648D01*
X174138884Y-76101648D02*
X174043646Y-76149267D01*
X174043646Y-76149267D02*
X173662694Y-76149267D01*
X174519837Y-75625458D02*
X174853170Y-76625458D01*
X174853170Y-76625458D02*
X175186503Y-75625458D01*
X175424599Y-75625458D02*
X176043646Y-75625458D01*
X176043646Y-75625458D02*
X175710313Y-76006410D01*
X175710313Y-76006410D02*
X175853170Y-76006410D01*
X175853170Y-76006410D02*
X175948408Y-76054029D01*
X175948408Y-76054029D02*
X175996027Y-76101648D01*
X175996027Y-76101648D02*
X176043646Y-76196886D01*
X176043646Y-76196886D02*
X176043646Y-76434981D01*
X176043646Y-76434981D02*
X175996027Y-76530219D01*
X175996027Y-76530219D02*
X175948408Y-76577839D01*
X175948408Y-76577839D02*
X175853170Y-76625458D01*
X175853170Y-76625458D02*
X175567456Y-76625458D01*
X175567456Y-76625458D02*
X175472218Y-76577839D01*
X175472218Y-76577839D02*
X175424599Y-76530219D01*
X142114180Y-84837305D02*
X141637989Y-85170638D01*
X142114180Y-85408733D02*
X141114180Y-85408733D01*
X141114180Y-85408733D02*
X141114180Y-85027781D01*
X141114180Y-85027781D02*
X141161799Y-84932543D01*
X141161799Y-84932543D02*
X141209418Y-84884924D01*
X141209418Y-84884924D02*
X141304656Y-84837305D01*
X141304656Y-84837305D02*
X141447513Y-84837305D01*
X141447513Y-84837305D02*
X141542751Y-84884924D01*
X141542751Y-84884924D02*
X141590370Y-84932543D01*
X141590370Y-84932543D02*
X141637989Y-85027781D01*
X141637989Y-85027781D02*
X141637989Y-85408733D01*
X141114180Y-83980162D02*
X141114180Y-84170638D01*
X141114180Y-84170638D02*
X141161799Y-84265876D01*
X141161799Y-84265876D02*
X141209418Y-84313495D01*
X141209418Y-84313495D02*
X141352275Y-84408733D01*
X141352275Y-84408733D02*
X141542751Y-84456352D01*
X141542751Y-84456352D02*
X141923703Y-84456352D01*
X141923703Y-84456352D02*
X142018941Y-84408733D01*
X142018941Y-84408733D02*
X142066561Y-84361114D01*
X142066561Y-84361114D02*
X142114180Y-84265876D01*
X142114180Y-84265876D02*
X142114180Y-84075400D01*
X142114180Y-84075400D02*
X142066561Y-83980162D01*
X142066561Y-83980162D02*
X142018941Y-83932543D01*
X142018941Y-83932543D02*
X141923703Y-83884924D01*
X141923703Y-83884924D02*
X141685608Y-83884924D01*
X141685608Y-83884924D02*
X141590370Y-83932543D01*
X141590370Y-83932543D02*
X141542751Y-83980162D01*
X141542751Y-83980162D02*
X141495132Y-84075400D01*
X141495132Y-84075400D02*
X141495132Y-84265876D01*
X141495132Y-84265876D02*
X141542751Y-84361114D01*
X141542751Y-84361114D02*
X141590370Y-84408733D01*
X141590370Y-84408733D02*
X141685608Y-84456352D01*
X139734122Y-76625458D02*
X139400789Y-76149267D01*
X139162694Y-76625458D02*
X139162694Y-75625458D01*
X139162694Y-75625458D02*
X139543646Y-75625458D01*
X139543646Y-75625458D02*
X139638884Y-75673077D01*
X139638884Y-75673077D02*
X139686503Y-75720696D01*
X139686503Y-75720696D02*
X139734122Y-75815934D01*
X139734122Y-75815934D02*
X139734122Y-75958791D01*
X139734122Y-75958791D02*
X139686503Y-76054029D01*
X139686503Y-76054029D02*
X139638884Y-76101648D01*
X139638884Y-76101648D02*
X139543646Y-76149267D01*
X139543646Y-76149267D02*
X139162694Y-76149267D01*
X140019837Y-75625458D02*
X140353170Y-76625458D01*
X140353170Y-76625458D02*
X140686503Y-75625458D01*
X141448408Y-75625458D02*
X141257932Y-75625458D01*
X141257932Y-75625458D02*
X141162694Y-75673077D01*
X141162694Y-75673077D02*
X141115075Y-75720696D01*
X141115075Y-75720696D02*
X141019837Y-75863553D01*
X141019837Y-75863553D02*
X140972218Y-76054029D01*
X140972218Y-76054029D02*
X140972218Y-76434981D01*
X140972218Y-76434981D02*
X141019837Y-76530219D01*
X141019837Y-76530219D02*
X141067456Y-76577839D01*
X141067456Y-76577839D02*
X141162694Y-76625458D01*
X141162694Y-76625458D02*
X141353170Y-76625458D01*
X141353170Y-76625458D02*
X141448408Y-76577839D01*
X141448408Y-76577839D02*
X141496027Y-76530219D01*
X141496027Y-76530219D02*
X141543646Y-76434981D01*
X141543646Y-76434981D02*
X141543646Y-76196886D01*
X141543646Y-76196886D02*
X141496027Y-76101648D01*
X141496027Y-76101648D02*
X141448408Y-76054029D01*
X141448408Y-76054029D02*
X141353170Y-76006410D01*
X141353170Y-76006410D02*
X141162694Y-76006410D01*
X141162694Y-76006410D02*
X141067456Y-76054029D01*
X141067456Y-76054029D02*
X141019837Y-76101648D01*
X141019837Y-76101648D02*
X140972218Y-76196886D01*
X158567456Y-80125458D02*
X158567456Y-80934981D01*
X158567456Y-80934981D02*
X158615075Y-81030219D01*
X158615075Y-81030219D02*
X158662694Y-81077839D01*
X158662694Y-81077839D02*
X158757932Y-81125458D01*
X158757932Y-81125458D02*
X158948408Y-81125458D01*
X158948408Y-81125458D02*
X159043646Y-81077839D01*
X159043646Y-81077839D02*
X159091265Y-81030219D01*
X159091265Y-81030219D02*
X159138884Y-80934981D01*
X159138884Y-80934981D02*
X159138884Y-80125458D01*
X159519837Y-80125458D02*
X160138884Y-80125458D01*
X160138884Y-80125458D02*
X159805551Y-80506410D01*
X159805551Y-80506410D02*
X159948408Y-80506410D01*
X159948408Y-80506410D02*
X160043646Y-80554029D01*
X160043646Y-80554029D02*
X160091265Y-80601648D01*
X160091265Y-80601648D02*
X160138884Y-80696886D01*
X160138884Y-80696886D02*
X160138884Y-80934981D01*
X160138884Y-80934981D02*
X160091265Y-81030219D01*
X160091265Y-81030219D02*
X160043646Y-81077839D01*
X160043646Y-81077839D02*
X159948408Y-81125458D01*
X159948408Y-81125458D02*
X159662694Y-81125458D01*
X159662694Y-81125458D02*
X159567456Y-81077839D01*
X159567456Y-81077839D02*
X159519837Y-81030219D01*
X197234122Y-76625458D02*
X196900789Y-76149267D01*
X196662694Y-76625458D02*
X196662694Y-75625458D01*
X196662694Y-75625458D02*
X197043646Y-75625458D01*
X197043646Y-75625458D02*
X197138884Y-75673077D01*
X197138884Y-75673077D02*
X197186503Y-75720696D01*
X197186503Y-75720696D02*
X197234122Y-75815934D01*
X197234122Y-75815934D02*
X197234122Y-75958791D01*
X197234122Y-75958791D02*
X197186503Y-76054029D01*
X197186503Y-76054029D02*
X197138884Y-76101648D01*
X197138884Y-76101648D02*
X197043646Y-76149267D01*
X197043646Y-76149267D02*
X196662694Y-76149267D01*
X197519837Y-75625458D02*
X197853170Y-76625458D01*
X197853170Y-76625458D02*
X198186503Y-75625458D01*
X199043646Y-76625458D02*
X198472218Y-76625458D01*
X198757932Y-76625458D02*
X198757932Y-75625458D01*
X198757932Y-75625458D02*
X198662694Y-75768315D01*
X198662694Y-75768315D02*
X198567456Y-75863553D01*
X198567456Y-75863553D02*
X198472218Y-75911172D01*
X199538941Y-115313496D02*
X199586561Y-115361115D01*
X199586561Y-115361115D02*
X199634180Y-115503972D01*
X199634180Y-115503972D02*
X199634180Y-115599210D01*
X199634180Y-115599210D02*
X199586561Y-115742067D01*
X199586561Y-115742067D02*
X199491322Y-115837305D01*
X199491322Y-115837305D02*
X199396084Y-115884924D01*
X199396084Y-115884924D02*
X199205608Y-115932543D01*
X199205608Y-115932543D02*
X199062751Y-115932543D01*
X199062751Y-115932543D02*
X198872275Y-115884924D01*
X198872275Y-115884924D02*
X198777037Y-115837305D01*
X198777037Y-115837305D02*
X198681799Y-115742067D01*
X198681799Y-115742067D02*
X198634180Y-115599210D01*
X198634180Y-115599210D02*
X198634180Y-115503972D01*
X198634180Y-115503972D02*
X198681799Y-115361115D01*
X198681799Y-115361115D02*
X198729418Y-115313496D01*
X199634180Y-114361115D02*
X199634180Y-114932543D01*
X199634180Y-114646829D02*
X198634180Y-114646829D01*
X198634180Y-114646829D02*
X198777037Y-114742067D01*
X198777037Y-114742067D02*
X198872275Y-114837305D01*
X198872275Y-114837305D02*
X198919894Y-114932543D01*
X198634180Y-113456353D02*
X198634180Y-113932543D01*
X198634180Y-113932543D02*
X199110370Y-113980162D01*
X199110370Y-113980162D02*
X199062751Y-113932543D01*
X199062751Y-113932543D02*
X199015132Y-113837305D01*
X199015132Y-113837305D02*
X199015132Y-113599210D01*
X199015132Y-113599210D02*
X199062751Y-113503972D01*
X199062751Y-113503972D02*
X199110370Y-113456353D01*
X199110370Y-113456353D02*
X199205608Y-113408734D01*
X199205608Y-113408734D02*
X199443703Y-113408734D01*
X199443703Y-113408734D02*
X199538941Y-113456353D01*
X199538941Y-113456353D02*
X199586561Y-113503972D01*
X199586561Y-113503972D02*
X199634180Y-113599210D01*
X199634180Y-113599210D02*
X199634180Y-113837305D01*
X199634180Y-113837305D02*
X199586561Y-113932543D01*
X199586561Y-113932543D02*
X199538941Y-113980162D01*
X188538941Y-116313496D02*
X188586561Y-116361115D01*
X188586561Y-116361115D02*
X188634180Y-116503972D01*
X188634180Y-116503972D02*
X188634180Y-116599210D01*
X188634180Y-116599210D02*
X188586561Y-116742067D01*
X188586561Y-116742067D02*
X188491322Y-116837305D01*
X188491322Y-116837305D02*
X188396084Y-116884924D01*
X188396084Y-116884924D02*
X188205608Y-116932543D01*
X188205608Y-116932543D02*
X188062751Y-116932543D01*
X188062751Y-116932543D02*
X187872275Y-116884924D01*
X187872275Y-116884924D02*
X187777037Y-116837305D01*
X187777037Y-116837305D02*
X187681799Y-116742067D01*
X187681799Y-116742067D02*
X187634180Y-116599210D01*
X187634180Y-116599210D02*
X187634180Y-116503972D01*
X187634180Y-116503972D02*
X187681799Y-116361115D01*
X187681799Y-116361115D02*
X187729418Y-116313496D01*
X188634180Y-115361115D02*
X188634180Y-115932543D01*
X188634180Y-115646829D02*
X187634180Y-115646829D01*
X187634180Y-115646829D02*
X187777037Y-115742067D01*
X187777037Y-115742067D02*
X187872275Y-115837305D01*
X187872275Y-115837305D02*
X187919894Y-115932543D01*
X187634180Y-114503972D02*
X187634180Y-114694448D01*
X187634180Y-114694448D02*
X187681799Y-114789686D01*
X187681799Y-114789686D02*
X187729418Y-114837305D01*
X187729418Y-114837305D02*
X187872275Y-114932543D01*
X187872275Y-114932543D02*
X188062751Y-114980162D01*
X188062751Y-114980162D02*
X188443703Y-114980162D01*
X188443703Y-114980162D02*
X188538941Y-114932543D01*
X188538941Y-114932543D02*
X188586561Y-114884924D01*
X188586561Y-114884924D02*
X188634180Y-114789686D01*
X188634180Y-114789686D02*
X188634180Y-114599210D01*
X188634180Y-114599210D02*
X188586561Y-114503972D01*
X188586561Y-114503972D02*
X188538941Y-114456353D01*
X188538941Y-114456353D02*
X188443703Y-114408734D01*
X188443703Y-114408734D02*
X188205608Y-114408734D01*
X188205608Y-114408734D02*
X188110370Y-114456353D01*
X188110370Y-114456353D02*
X188062751Y-114503972D01*
X188062751Y-114503972D02*
X188015132Y-114599210D01*
X188015132Y-114599210D02*
X188015132Y-114789686D01*
X188015132Y-114789686D02*
X188062751Y-114884924D01*
X188062751Y-114884924D02*
X188110370Y-114932543D01*
X188110370Y-114932543D02*
X188205608Y-114980162D01*
X171401441Y-115362305D02*
X171449061Y-115409924D01*
X171449061Y-115409924D02*
X171496680Y-115552781D01*
X171496680Y-115552781D02*
X171496680Y-115648019D01*
X171496680Y-115648019D02*
X171449061Y-115790876D01*
X171449061Y-115790876D02*
X171353822Y-115886114D01*
X171353822Y-115886114D02*
X171258584Y-115933733D01*
X171258584Y-115933733D02*
X171068108Y-115981352D01*
X171068108Y-115981352D02*
X170925251Y-115981352D01*
X170925251Y-115981352D02*
X170734775Y-115933733D01*
X170734775Y-115933733D02*
X170639537Y-115886114D01*
X170639537Y-115886114D02*
X170544299Y-115790876D01*
X170544299Y-115790876D02*
X170496680Y-115648019D01*
X170496680Y-115648019D02*
X170496680Y-115552781D01*
X170496680Y-115552781D02*
X170544299Y-115409924D01*
X170544299Y-115409924D02*
X170591918Y-115362305D01*
X170496680Y-115028971D02*
X170496680Y-114409924D01*
X170496680Y-114409924D02*
X170877632Y-114743257D01*
X170877632Y-114743257D02*
X170877632Y-114600400D01*
X170877632Y-114600400D02*
X170925251Y-114505162D01*
X170925251Y-114505162D02*
X170972870Y-114457543D01*
X170972870Y-114457543D02*
X171068108Y-114409924D01*
X171068108Y-114409924D02*
X171306203Y-114409924D01*
X171306203Y-114409924D02*
X171401441Y-114457543D01*
X171401441Y-114457543D02*
X171449061Y-114505162D01*
X171449061Y-114505162D02*
X171496680Y-114600400D01*
X171496680Y-114600400D02*
X171496680Y-114886114D01*
X171496680Y-114886114D02*
X171449061Y-114981352D01*
X171449061Y-114981352D02*
X171401441Y-115028971D01*
X142114180Y-89999805D02*
X141637989Y-90333138D01*
X142114180Y-90571233D02*
X141114180Y-90571233D01*
X141114180Y-90571233D02*
X141114180Y-90190281D01*
X141114180Y-90190281D02*
X141161799Y-90095043D01*
X141161799Y-90095043D02*
X141209418Y-90047424D01*
X141209418Y-90047424D02*
X141304656Y-89999805D01*
X141304656Y-89999805D02*
X141447513Y-89999805D01*
X141447513Y-89999805D02*
X141542751Y-90047424D01*
X141542751Y-90047424D02*
X141590370Y-90095043D01*
X141590370Y-90095043D02*
X141637989Y-90190281D01*
X141637989Y-90190281D02*
X141637989Y-90571233D01*
X141114180Y-89666471D02*
X141114180Y-89047424D01*
X141114180Y-89047424D02*
X141495132Y-89380757D01*
X141495132Y-89380757D02*
X141495132Y-89237900D01*
X141495132Y-89237900D02*
X141542751Y-89142662D01*
X141542751Y-89142662D02*
X141590370Y-89095043D01*
X141590370Y-89095043D02*
X141685608Y-89047424D01*
X141685608Y-89047424D02*
X141923703Y-89047424D01*
X141923703Y-89047424D02*
X142018941Y-89095043D01*
X142018941Y-89095043D02*
X142066561Y-89142662D01*
X142066561Y-89142662D02*
X142114180Y-89237900D01*
X142114180Y-89237900D02*
X142114180Y-89523614D01*
X142114180Y-89523614D02*
X142066561Y-89618852D01*
X142066561Y-89618852D02*
X142018941Y-89666471D01*
X143454180Y-84762305D02*
X142977989Y-85095638D01*
X143454180Y-85333733D02*
X142454180Y-85333733D01*
X142454180Y-85333733D02*
X142454180Y-84952781D01*
X142454180Y-84952781D02*
X142501799Y-84857543D01*
X142501799Y-84857543D02*
X142549418Y-84809924D01*
X142549418Y-84809924D02*
X142644656Y-84762305D01*
X142644656Y-84762305D02*
X142787513Y-84762305D01*
X142787513Y-84762305D02*
X142882751Y-84809924D01*
X142882751Y-84809924D02*
X142930370Y-84857543D01*
X142930370Y-84857543D02*
X142977989Y-84952781D01*
X142977989Y-84952781D02*
X142977989Y-85333733D01*
X142549418Y-84381352D02*
X142501799Y-84333733D01*
X142501799Y-84333733D02*
X142454180Y-84238495D01*
X142454180Y-84238495D02*
X142454180Y-84000400D01*
X142454180Y-84000400D02*
X142501799Y-83905162D01*
X142501799Y-83905162D02*
X142549418Y-83857543D01*
X142549418Y-83857543D02*
X142644656Y-83809924D01*
X142644656Y-83809924D02*
X142739894Y-83809924D01*
X142739894Y-83809924D02*
X142882751Y-83857543D01*
X142882751Y-83857543D02*
X143454180Y-84428971D01*
X143454180Y-84428971D02*
X143454180Y-83809924D01*
X130234122Y-76625458D02*
X129900789Y-76149267D01*
X129662694Y-76625458D02*
X129662694Y-75625458D01*
X129662694Y-75625458D02*
X130043646Y-75625458D01*
X130043646Y-75625458D02*
X130138884Y-75673077D01*
X130138884Y-75673077D02*
X130186503Y-75720696D01*
X130186503Y-75720696D02*
X130234122Y-75815934D01*
X130234122Y-75815934D02*
X130234122Y-75958791D01*
X130234122Y-75958791D02*
X130186503Y-76054029D01*
X130186503Y-76054029D02*
X130138884Y-76101648D01*
X130138884Y-76101648D02*
X130043646Y-76149267D01*
X130043646Y-76149267D02*
X129662694Y-76149267D01*
X130519837Y-75625458D02*
X130853170Y-76625458D01*
X130853170Y-76625458D02*
X131186503Y-75625458D01*
X131424599Y-75625458D02*
X132091265Y-75625458D01*
X132091265Y-75625458D02*
X131662694Y-76625458D01*
X162734122Y-76625458D02*
X162400789Y-76149267D01*
X162162694Y-76625458D02*
X162162694Y-75625458D01*
X162162694Y-75625458D02*
X162543646Y-75625458D01*
X162543646Y-75625458D02*
X162638884Y-75673077D01*
X162638884Y-75673077D02*
X162686503Y-75720696D01*
X162686503Y-75720696D02*
X162734122Y-75815934D01*
X162734122Y-75815934D02*
X162734122Y-75958791D01*
X162734122Y-75958791D02*
X162686503Y-76054029D01*
X162686503Y-76054029D02*
X162638884Y-76101648D01*
X162638884Y-76101648D02*
X162543646Y-76149267D01*
X162543646Y-76149267D02*
X162162694Y-76149267D01*
X163019837Y-75625458D02*
X163353170Y-76625458D01*
X163353170Y-76625458D02*
X163686503Y-75625458D01*
X164448408Y-75958791D02*
X164448408Y-76625458D01*
X164210313Y-75577839D02*
X163972218Y-76292124D01*
X163972218Y-76292124D02*
X164591265Y-76292124D01*
X185114180Y-87299805D02*
X184637989Y-87633138D01*
X185114180Y-87871233D02*
X184114180Y-87871233D01*
X184114180Y-87871233D02*
X184114180Y-87490281D01*
X184114180Y-87490281D02*
X184161799Y-87395043D01*
X184161799Y-87395043D02*
X184209418Y-87347424D01*
X184209418Y-87347424D02*
X184304656Y-87299805D01*
X184304656Y-87299805D02*
X184447513Y-87299805D01*
X184447513Y-87299805D02*
X184542751Y-87347424D01*
X184542751Y-87347424D02*
X184590370Y-87395043D01*
X184590370Y-87395043D02*
X184637989Y-87490281D01*
X184637989Y-87490281D02*
X184637989Y-87871233D01*
X184447513Y-86442662D02*
X185114180Y-86442662D01*
X184066561Y-86680757D02*
X184780846Y-86918852D01*
X184780846Y-86918852D02*
X184780846Y-86299805D01*
X186338941Y-87337305D02*
X186386561Y-87384924D01*
X186386561Y-87384924D02*
X186434180Y-87527781D01*
X186434180Y-87527781D02*
X186434180Y-87623019D01*
X186434180Y-87623019D02*
X186386561Y-87765876D01*
X186386561Y-87765876D02*
X186291322Y-87861114D01*
X186291322Y-87861114D02*
X186196084Y-87908733D01*
X186196084Y-87908733D02*
X186005608Y-87956352D01*
X186005608Y-87956352D02*
X185862751Y-87956352D01*
X185862751Y-87956352D02*
X185672275Y-87908733D01*
X185672275Y-87908733D02*
X185577037Y-87861114D01*
X185577037Y-87861114D02*
X185481799Y-87765876D01*
X185481799Y-87765876D02*
X185434180Y-87623019D01*
X185434180Y-87623019D02*
X185434180Y-87527781D01*
X185434180Y-87527781D02*
X185481799Y-87384924D01*
X185481799Y-87384924D02*
X185529418Y-87337305D01*
X186434180Y-86861114D02*
X186434180Y-86670638D01*
X186434180Y-86670638D02*
X186386561Y-86575400D01*
X186386561Y-86575400D02*
X186338941Y-86527781D01*
X186338941Y-86527781D02*
X186196084Y-86432543D01*
X186196084Y-86432543D02*
X186005608Y-86384924D01*
X186005608Y-86384924D02*
X185624656Y-86384924D01*
X185624656Y-86384924D02*
X185529418Y-86432543D01*
X185529418Y-86432543D02*
X185481799Y-86480162D01*
X185481799Y-86480162D02*
X185434180Y-86575400D01*
X185434180Y-86575400D02*
X185434180Y-86765876D01*
X185434180Y-86765876D02*
X185481799Y-86861114D01*
X185481799Y-86861114D02*
X185529418Y-86908733D01*
X185529418Y-86908733D02*
X185624656Y-86956352D01*
X185624656Y-86956352D02*
X185862751Y-86956352D01*
X185862751Y-86956352D02*
X185957989Y-86908733D01*
X185957989Y-86908733D02*
X186005608Y-86861114D01*
X186005608Y-86861114D02*
X186053227Y-86765876D01*
X186053227Y-86765876D02*
X186053227Y-86575400D01*
X186053227Y-86575400D02*
X186005608Y-86480162D01*
X186005608Y-86480162D02*
X185957989Y-86432543D01*
X185957989Y-86432543D02*
X185862751Y-86384924D01*
X179901441Y-107862305D02*
X179949061Y-107909924D01*
X179949061Y-107909924D02*
X179996680Y-108052781D01*
X179996680Y-108052781D02*
X179996680Y-108148019D01*
X179996680Y-108148019D02*
X179949061Y-108290876D01*
X179949061Y-108290876D02*
X179853822Y-108386114D01*
X179853822Y-108386114D02*
X179758584Y-108433733D01*
X179758584Y-108433733D02*
X179568108Y-108481352D01*
X179568108Y-108481352D02*
X179425251Y-108481352D01*
X179425251Y-108481352D02*
X179234775Y-108433733D01*
X179234775Y-108433733D02*
X179139537Y-108386114D01*
X179139537Y-108386114D02*
X179044299Y-108290876D01*
X179044299Y-108290876D02*
X178996680Y-108148019D01*
X178996680Y-108148019D02*
X178996680Y-108052781D01*
X178996680Y-108052781D02*
X179044299Y-107909924D01*
X179044299Y-107909924D02*
X179091918Y-107862305D01*
X179996680Y-106909924D02*
X179996680Y-107481352D01*
X179996680Y-107195638D02*
X178996680Y-107195638D01*
X178996680Y-107195638D02*
X179139537Y-107290876D01*
X179139537Y-107290876D02*
X179234775Y-107386114D01*
X179234775Y-107386114D02*
X179282394Y-107481352D01*
X108738941Y-86238496D02*
X108786561Y-86286115D01*
X108786561Y-86286115D02*
X108834180Y-86428972D01*
X108834180Y-86428972D02*
X108834180Y-86524210D01*
X108834180Y-86524210D02*
X108786561Y-86667067D01*
X108786561Y-86667067D02*
X108691322Y-86762305D01*
X108691322Y-86762305D02*
X108596084Y-86809924D01*
X108596084Y-86809924D02*
X108405608Y-86857543D01*
X108405608Y-86857543D02*
X108262751Y-86857543D01*
X108262751Y-86857543D02*
X108072275Y-86809924D01*
X108072275Y-86809924D02*
X107977037Y-86762305D01*
X107977037Y-86762305D02*
X107881799Y-86667067D01*
X107881799Y-86667067D02*
X107834180Y-86524210D01*
X107834180Y-86524210D02*
X107834180Y-86428972D01*
X107834180Y-86428972D02*
X107881799Y-86286115D01*
X107881799Y-86286115D02*
X107929418Y-86238496D01*
X108834180Y-85286115D02*
X108834180Y-85857543D01*
X108834180Y-85571829D02*
X107834180Y-85571829D01*
X107834180Y-85571829D02*
X107977037Y-85667067D01*
X107977037Y-85667067D02*
X108072275Y-85762305D01*
X108072275Y-85762305D02*
X108119894Y-85857543D01*
X107834180Y-84952781D02*
X107834180Y-84286115D01*
X107834180Y-84286115D02*
X108834180Y-84714686D01*
X182662694Y-101380219D02*
X182615075Y-101427839D01*
X182615075Y-101427839D02*
X182472218Y-101475458D01*
X182472218Y-101475458D02*
X182376980Y-101475458D01*
X182376980Y-101475458D02*
X182234123Y-101427839D01*
X182234123Y-101427839D02*
X182138885Y-101332600D01*
X182138885Y-101332600D02*
X182091266Y-101237362D01*
X182091266Y-101237362D02*
X182043647Y-101046886D01*
X182043647Y-101046886D02*
X182043647Y-100904029D01*
X182043647Y-100904029D02*
X182091266Y-100713553D01*
X182091266Y-100713553D02*
X182138885Y-100618315D01*
X182138885Y-100618315D02*
X182234123Y-100523077D01*
X182234123Y-100523077D02*
X182376980Y-100475458D01*
X182376980Y-100475458D02*
X182472218Y-100475458D01*
X182472218Y-100475458D02*
X182615075Y-100523077D01*
X182615075Y-100523077D02*
X182662694Y-100570696D01*
X183043647Y-100570696D02*
X183091266Y-100523077D01*
X183091266Y-100523077D02*
X183186504Y-100475458D01*
X183186504Y-100475458D02*
X183424599Y-100475458D01*
X183424599Y-100475458D02*
X183519837Y-100523077D01*
X183519837Y-100523077D02*
X183567456Y-100570696D01*
X183567456Y-100570696D02*
X183615075Y-100665934D01*
X183615075Y-100665934D02*
X183615075Y-100761172D01*
X183615075Y-100761172D02*
X183567456Y-100904029D01*
X183567456Y-100904029D02*
X182996028Y-101475458D01*
X182996028Y-101475458D02*
X183615075Y-101475458D01*
X170686503Y-101180219D02*
X170638884Y-101227839D01*
X170638884Y-101227839D02*
X170496027Y-101275458D01*
X170496027Y-101275458D02*
X170400789Y-101275458D01*
X170400789Y-101275458D02*
X170257932Y-101227839D01*
X170257932Y-101227839D02*
X170162694Y-101132600D01*
X170162694Y-101132600D02*
X170115075Y-101037362D01*
X170115075Y-101037362D02*
X170067456Y-100846886D01*
X170067456Y-100846886D02*
X170067456Y-100704029D01*
X170067456Y-100704029D02*
X170115075Y-100513553D01*
X170115075Y-100513553D02*
X170162694Y-100418315D01*
X170162694Y-100418315D02*
X170257932Y-100323077D01*
X170257932Y-100323077D02*
X170400789Y-100275458D01*
X170400789Y-100275458D02*
X170496027Y-100275458D01*
X170496027Y-100275458D02*
X170638884Y-100323077D01*
X170638884Y-100323077D02*
X170686503Y-100370696D01*
X171638884Y-101275458D02*
X171067456Y-101275458D01*
X171353170Y-101275458D02*
X171353170Y-100275458D01*
X171353170Y-100275458D02*
X171257932Y-100418315D01*
X171257932Y-100418315D02*
X171162694Y-100513553D01*
X171162694Y-100513553D02*
X171067456Y-100561172D01*
X172019837Y-100370696D02*
X172067456Y-100323077D01*
X172067456Y-100323077D02*
X172162694Y-100275458D01*
X172162694Y-100275458D02*
X172400789Y-100275458D01*
X172400789Y-100275458D02*
X172496027Y-100323077D01*
X172496027Y-100323077D02*
X172543646Y-100370696D01*
X172543646Y-100370696D02*
X172591265Y-100465934D01*
X172591265Y-100465934D02*
X172591265Y-100561172D01*
X172591265Y-100561172D02*
X172543646Y-100704029D01*
X172543646Y-100704029D02*
X171972218Y-101275458D01*
X171972218Y-101275458D02*
X172591265Y-101275458D01*
X116734122Y-76625458D02*
X116400789Y-76149267D01*
X116162694Y-76625458D02*
X116162694Y-75625458D01*
X116162694Y-75625458D02*
X116543646Y-75625458D01*
X116543646Y-75625458D02*
X116638884Y-75673077D01*
X116638884Y-75673077D02*
X116686503Y-75720696D01*
X116686503Y-75720696D02*
X116734122Y-75815934D01*
X116734122Y-75815934D02*
X116734122Y-75958791D01*
X116734122Y-75958791D02*
X116686503Y-76054029D01*
X116686503Y-76054029D02*
X116638884Y-76101648D01*
X116638884Y-76101648D02*
X116543646Y-76149267D01*
X116543646Y-76149267D02*
X116162694Y-76149267D01*
X117019837Y-75625458D02*
X117353170Y-76625458D01*
X117353170Y-76625458D02*
X117686503Y-75625458D01*
X118162694Y-76054029D02*
X118067456Y-76006410D01*
X118067456Y-76006410D02*
X118019837Y-75958791D01*
X118019837Y-75958791D02*
X117972218Y-75863553D01*
X117972218Y-75863553D02*
X117972218Y-75815934D01*
X117972218Y-75815934D02*
X118019837Y-75720696D01*
X118019837Y-75720696D02*
X118067456Y-75673077D01*
X118067456Y-75673077D02*
X118162694Y-75625458D01*
X118162694Y-75625458D02*
X118353170Y-75625458D01*
X118353170Y-75625458D02*
X118448408Y-75673077D01*
X118448408Y-75673077D02*
X118496027Y-75720696D01*
X118496027Y-75720696D02*
X118543646Y-75815934D01*
X118543646Y-75815934D02*
X118543646Y-75863553D01*
X118543646Y-75863553D02*
X118496027Y-75958791D01*
X118496027Y-75958791D02*
X118448408Y-76006410D01*
X118448408Y-76006410D02*
X118353170Y-76054029D01*
X118353170Y-76054029D02*
X118162694Y-76054029D01*
X118162694Y-76054029D02*
X118067456Y-76101648D01*
X118067456Y-76101648D02*
X118019837Y-76149267D01*
X118019837Y-76149267D02*
X117972218Y-76244505D01*
X117972218Y-76244505D02*
X117972218Y-76434981D01*
X117972218Y-76434981D02*
X118019837Y-76530219D01*
X118019837Y-76530219D02*
X118067456Y-76577839D01*
X118067456Y-76577839D02*
X118162694Y-76625458D01*
X118162694Y-76625458D02*
X118353170Y-76625458D01*
X118353170Y-76625458D02*
X118448408Y-76577839D01*
X118448408Y-76577839D02*
X118496027Y-76530219D01*
X118496027Y-76530219D02*
X118543646Y-76434981D01*
X118543646Y-76434981D02*
X118543646Y-76244505D01*
X118543646Y-76244505D02*
X118496027Y-76149267D01*
X118496027Y-76149267D02*
X118448408Y-76101648D01*
X118448408Y-76101648D02*
X118353170Y-76054029D01*
X190629180Y-87503972D02*
X191343465Y-87503972D01*
X191343465Y-87503972D02*
X191486322Y-87551591D01*
X191486322Y-87551591D02*
X191581561Y-87646829D01*
X191581561Y-87646829D02*
X191629180Y-87789686D01*
X191629180Y-87789686D02*
X191629180Y-87884924D01*
X190962513Y-86599210D02*
X191629180Y-86599210D01*
X190581561Y-86837305D02*
X191295846Y-87075400D01*
X191295846Y-87075400D02*
X191295846Y-86456353D01*
X156662694Y-85180219D02*
X156615075Y-85227839D01*
X156615075Y-85227839D02*
X156472218Y-85275458D01*
X156472218Y-85275458D02*
X156376980Y-85275458D01*
X156376980Y-85275458D02*
X156234123Y-85227839D01*
X156234123Y-85227839D02*
X156138885Y-85132600D01*
X156138885Y-85132600D02*
X156091266Y-85037362D01*
X156091266Y-85037362D02*
X156043647Y-84846886D01*
X156043647Y-84846886D02*
X156043647Y-84704029D01*
X156043647Y-84704029D02*
X156091266Y-84513553D01*
X156091266Y-84513553D02*
X156138885Y-84418315D01*
X156138885Y-84418315D02*
X156234123Y-84323077D01*
X156234123Y-84323077D02*
X156376980Y-84275458D01*
X156376980Y-84275458D02*
X156472218Y-84275458D01*
X156472218Y-84275458D02*
X156615075Y-84323077D01*
X156615075Y-84323077D02*
X156662694Y-84370696D01*
X157567456Y-84275458D02*
X157091266Y-84275458D01*
X157091266Y-84275458D02*
X157043647Y-84751648D01*
X157043647Y-84751648D02*
X157091266Y-84704029D01*
X157091266Y-84704029D02*
X157186504Y-84656410D01*
X157186504Y-84656410D02*
X157424599Y-84656410D01*
X157424599Y-84656410D02*
X157519837Y-84704029D01*
X157519837Y-84704029D02*
X157567456Y-84751648D01*
X157567456Y-84751648D02*
X157615075Y-84846886D01*
X157615075Y-84846886D02*
X157615075Y-85084981D01*
X157615075Y-85084981D02*
X157567456Y-85180219D01*
X157567456Y-85180219D02*
X157519837Y-85227839D01*
X157519837Y-85227839D02*
X157424599Y-85275458D01*
X157424599Y-85275458D02*
X157186504Y-85275458D01*
X157186504Y-85275458D02*
X157091266Y-85227839D01*
X157091266Y-85227839D02*
X157043647Y-85180219D01*
X157300965Y-94633978D02*
X157300965Y-94157788D01*
X157586680Y-94729216D02*
X156586680Y-94395883D01*
X156586680Y-94395883D02*
X157586680Y-94062550D01*
X157586680Y-93205407D02*
X157586680Y-93776835D01*
X157586680Y-93491121D02*
X156586680Y-93491121D01*
X156586680Y-93491121D02*
X156729537Y-93586359D01*
X156729537Y-93586359D02*
X156824775Y-93681597D01*
X156824775Y-93681597D02*
X156872394Y-93776835D01*
D11*
%TO.C,U2*%
X171609361Y-80810639D02*
X171369361Y-80480639D01*
X171849361Y-80480639D01*
X171609361Y-80810639D01*
G36*
X171609361Y-80810639D02*
G01*
X171369361Y-80480639D01*
X171849361Y-80480639D01*
X171609361Y-80810639D01*
G37*
X172064361Y-82360639D02*
X172064361Y-86980639D01*
X166594361Y-86980639D02*
X166594361Y-82360639D01*
%TO.C,J7*%
X121414361Y-85690639D02*
X121414361Y-83040639D01*
X124174361Y-83040639D02*
X121414361Y-83040639D01*
X124174361Y-85690639D02*
X121414361Y-85690639D01*
X124174361Y-85690639D02*
X124174361Y-83040639D01*
X124174361Y-86960639D02*
X124174361Y-88340639D01*
X124174361Y-88340639D02*
X122794361Y-88340639D01*
%TO.C,RV5*%
X145369361Y-71515639D02*
X145369361Y-74275639D01*
X150559361Y-71515639D02*
X145369361Y-71515639D01*
X150559361Y-71515639D02*
X150559361Y-74275639D01*
X150559361Y-74275639D02*
X145369361Y-74275639D01*
X151829361Y-71515639D02*
X153209361Y-71515639D01*
X153209361Y-71515639D02*
X153209361Y-72895639D01*
%TO.C,C6*%
X175919361Y-84381891D02*
X175919361Y-82959387D01*
X177739361Y-84381891D02*
X177739361Y-82959387D01*
%TO.C,SW1*%
X126949361Y-82940639D02*
X128329361Y-82940639D01*
X126949361Y-84320639D02*
X126949361Y-82940639D01*
X126949361Y-85590639D02*
X126949361Y-88240639D01*
X126949361Y-85590639D02*
X129709361Y-85590639D01*
X126949361Y-88240639D02*
X129709361Y-88240639D01*
X129709361Y-85590639D02*
X129709361Y-88240639D01*
%TO.C,C11*%
X166891861Y-94823139D02*
X167679361Y-94823139D01*
X167285611Y-94429389D02*
X167285611Y-95216889D01*
X167919361Y-94325076D02*
X167919361Y-95610639D01*
X167919361Y-94325076D02*
X168983798Y-93260639D01*
X167919361Y-99016202D02*
X167919361Y-97730639D01*
X167919361Y-99016202D02*
X168983798Y-100080639D01*
X168983798Y-93260639D02*
X174739361Y-93260639D01*
X168983798Y-100080639D02*
X174739361Y-100080639D01*
X174739361Y-93260639D02*
X174739361Y-95610639D01*
X174739361Y-100080639D02*
X174739361Y-97730639D01*
%TO.C,C8*%
X173981861Y-111785639D02*
X173981861Y-114135639D01*
X173981861Y-118605639D02*
X173981861Y-116255639D01*
X179737424Y-111785639D02*
X173981861Y-111785639D01*
X179737424Y-118605639D02*
X173981861Y-118605639D01*
X180801861Y-112850076D02*
X179737424Y-111785639D01*
X180801861Y-112850076D02*
X180801861Y-114135639D01*
X180801861Y-117541202D02*
X179737424Y-118605639D01*
X180801861Y-117541202D02*
X180801861Y-116255639D01*
X181435611Y-117436889D02*
X181435611Y-116649389D01*
X181829361Y-117043139D02*
X181041861Y-117043139D01*
%TO.C,R1*%
X151394361Y-85897703D02*
X151394361Y-84443575D01*
X153214361Y-85897703D02*
X153214361Y-84443575D01*
%TO.C,R7*%
X162419361Y-106897703D02*
X162419361Y-105443575D01*
X164239361Y-106897703D02*
X164239361Y-105443575D01*
%TO.C,R5*%
X181919361Y-81860203D02*
X181919361Y-80406075D01*
X183739361Y-81860203D02*
X183739361Y-80406075D01*
%TO.C,C7*%
X162540613Y-85760639D02*
X161118109Y-85760639D01*
X162540613Y-87580639D02*
X161118109Y-87580639D01*
%TO.C,C14*%
X191618109Y-103785639D02*
X193040613Y-103785639D01*
X191618109Y-105605639D02*
X193040613Y-105605639D01*
%TO.C,U1*%
X182019361Y-102785639D02*
X186639361Y-102785639D01*
X186639361Y-109555639D02*
X182019361Y-109555639D01*
X180469361Y-103240639D02*
X180139361Y-103480639D01*
X180139361Y-103000639D01*
X180469361Y-103240639D01*
G36*
X180469361Y-103240639D02*
G01*
X180139361Y-103480639D01*
X180139361Y-103000639D01*
X180469361Y-103240639D01*
G37*
%TO.C,C10*%
X186919361Y-80459387D02*
X186919361Y-81881891D01*
X188739361Y-80459387D02*
X188739361Y-81881891D01*
%TO.C,C13*%
X188891861Y-94823139D02*
X189679361Y-94823139D01*
X189285611Y-94429389D02*
X189285611Y-95216889D01*
X189919361Y-94325076D02*
X189919361Y-95610639D01*
X189919361Y-94325076D02*
X190983798Y-93260639D01*
X189919361Y-99016202D02*
X189919361Y-97730639D01*
X189919361Y-99016202D02*
X190983798Y-100080639D01*
X190983798Y-93260639D02*
X196739361Y-93260639D01*
X190983798Y-100080639D02*
X196739361Y-100080639D01*
X196739361Y-93260639D02*
X196739361Y-95610639D01*
X196739361Y-100080639D02*
X196739361Y-97730639D01*
%TO.C,RV2*%
X179869361Y-71515639D02*
X179869361Y-74275639D01*
X185059361Y-71515639D02*
X179869361Y-71515639D01*
X185059361Y-71515639D02*
X185059361Y-74275639D01*
X185059361Y-74275639D02*
X179869361Y-74275639D01*
X186329361Y-71515639D02*
X187709361Y-71515639D01*
X187709361Y-71515639D02*
X187709361Y-72895639D01*
%TO.C,J5*%
X192174361Y-82550639D02*
X192174361Y-81170639D01*
X193554361Y-82550639D02*
X192174361Y-82550639D01*
X194824361Y-79790639D02*
X197474361Y-79790639D01*
X194824361Y-82550639D02*
X194824361Y-79790639D01*
X194824361Y-82550639D02*
X197474361Y-82550639D01*
X197474361Y-82550639D02*
X197474361Y-79790639D01*
%TO.C,J6*%
X132949361Y-85600639D02*
X132949361Y-82950639D01*
X135709361Y-82950639D02*
X132949361Y-82950639D01*
X135709361Y-85600639D02*
X132949361Y-85600639D01*
X135709361Y-85600639D02*
X135709361Y-82950639D01*
X135709361Y-86870639D02*
X135709361Y-88250639D01*
X135709361Y-88250639D02*
X134329361Y-88250639D01*
%TO.C,RV3*%
X168369361Y-71515639D02*
X168369361Y-74275639D01*
X173559361Y-71515639D02*
X168369361Y-71515639D01*
X173559361Y-71515639D02*
X173559361Y-74275639D01*
X173559361Y-74275639D02*
X168369361Y-74275639D01*
X174829361Y-71515639D02*
X176209361Y-71515639D01*
X176209361Y-71515639D02*
X176209361Y-72895639D01*
%TO.C,R6*%
X138919361Y-83943575D02*
X138919361Y-85397703D01*
X140739361Y-83943575D02*
X140739361Y-85397703D01*
%TO.C,RV6*%
X133869361Y-71515639D02*
X133869361Y-74275639D01*
X139059361Y-71515639D02*
X133869361Y-71515639D01*
X139059361Y-71515639D02*
X139059361Y-74275639D01*
X139059361Y-74275639D02*
X133869361Y-74275639D01*
X140329361Y-71515639D02*
X141709361Y-71515639D01*
X141709361Y-71515639D02*
X141709361Y-72895639D01*
%TO.C,U3*%
X156131861Y-80610639D02*
X157651861Y-80610639D01*
X156131861Y-80660639D02*
X156131861Y-80610639D01*
X156131861Y-82560639D02*
X156131861Y-81780639D01*
X156131861Y-83730639D02*
X156131861Y-83680639D01*
X157651861Y-80610639D02*
X157651861Y-81610639D01*
X157651861Y-82730639D02*
X157651861Y-83730639D01*
X157651861Y-83730639D02*
X156131861Y-83730639D01*
X155591861Y-81790639D02*
X155831861Y-82120639D01*
X155351861Y-82120639D01*
X155591861Y-81790639D01*
G36*
X155831861Y-82120639D02*
G01*
X155351861Y-82120639D01*
X155591861Y-81790639D01*
X155831861Y-82120639D01*
G37*
%TO.C,RV1*%
X191369361Y-71515639D02*
X191369361Y-74275639D01*
X196559361Y-71515639D02*
X191369361Y-71515639D01*
X196559361Y-71515639D02*
X196559361Y-74275639D01*
X196559361Y-74275639D02*
X191369361Y-74275639D01*
X197829361Y-71515639D02*
X199209361Y-71515639D01*
X199209361Y-71515639D02*
X199209361Y-72895639D01*
%TO.C,C15*%
X191419361Y-112325076D02*
X191419361Y-118080639D01*
X191419361Y-118080639D02*
X193769361Y-118080639D01*
X192483798Y-111260639D02*
X191419361Y-112325076D01*
X192483798Y-111260639D02*
X193769361Y-111260639D01*
X196676861Y-110233139D02*
X196676861Y-111020639D01*
X197070611Y-110626889D02*
X196283111Y-110626889D01*
X197174924Y-111260639D02*
X195889361Y-111260639D01*
X197174924Y-111260639D02*
X198239361Y-112325076D01*
X198239361Y-112325076D02*
X198239361Y-118080639D01*
X198239361Y-118080639D02*
X195889361Y-118080639D01*
%TO.C,C16*%
X185419361Y-114959387D02*
X185419361Y-116381891D01*
X187239361Y-114959387D02*
X187239361Y-116381891D01*
%TO.C,C3*%
X163281861Y-112850076D02*
X163281861Y-118605639D01*
X163281861Y-118605639D02*
X165631861Y-118605639D01*
X164346298Y-111785639D02*
X163281861Y-112850076D01*
X164346298Y-111785639D02*
X165631861Y-111785639D01*
X168539361Y-110758139D02*
X168539361Y-111545639D01*
X168933111Y-111151889D02*
X168145611Y-111151889D01*
X169037424Y-111785639D02*
X167751861Y-111785639D01*
X169037424Y-111785639D02*
X170101861Y-112850076D01*
X170101861Y-112850076D02*
X170101861Y-118605639D01*
X170101861Y-118605639D02*
X167751861Y-118605639D01*
%TO.C,R3*%
X138919361Y-89106075D02*
X138919361Y-90560203D01*
X140739361Y-89106075D02*
X140739361Y-90560203D01*
%TO.C,R2*%
X143919361Y-85322703D02*
X143919361Y-83868575D01*
X145739361Y-85322703D02*
X145739361Y-83868575D01*
%TO.C,RV7*%
X122369361Y-71515639D02*
X122369361Y-74275639D01*
X127559361Y-71515639D02*
X122369361Y-71515639D01*
X127559361Y-71515639D02*
X127559361Y-74275639D01*
X127559361Y-74275639D02*
X122369361Y-74275639D01*
X128829361Y-71515639D02*
X130209361Y-71515639D01*
X130209361Y-71515639D02*
X130209361Y-72895639D01*
%TO.C,RV4*%
X156869361Y-71515639D02*
X156869361Y-74275639D01*
X162059361Y-71515639D02*
X156869361Y-71515639D01*
X162059361Y-71515639D02*
X162059361Y-74275639D01*
X162059361Y-74275639D02*
X156869361Y-74275639D01*
X163329361Y-71515639D02*
X164709361Y-71515639D01*
X164709361Y-71515639D02*
X164709361Y-72895639D01*
%TO.C,R4*%
X181919361Y-86406075D02*
X181919361Y-87860203D01*
X183739361Y-86406075D02*
X183739361Y-87860203D01*
%TO.C,C9*%
X186919361Y-87881891D02*
X186919361Y-86459387D01*
X188739361Y-87881891D02*
X188739361Y-86459387D01*
%TO.C,C1*%
X176781861Y-106984387D02*
X176781861Y-108406891D01*
X178601861Y-106984387D02*
X178601861Y-108406891D01*
%TO.C,C17*%
X109319361Y-81335639D02*
X112069361Y-81335639D01*
X109319361Y-88791202D02*
X109319361Y-81335639D01*
X110383798Y-89855639D02*
X109319361Y-88791202D01*
X110383798Y-89855639D02*
X112069361Y-89855639D01*
X110569361Y-90595639D02*
X111569361Y-90595639D01*
X111069361Y-91095639D02*
X111069361Y-90095639D01*
X116774924Y-89855639D02*
X115089361Y-89855639D01*
X116774924Y-89855639D02*
X117839361Y-88791202D01*
X117839361Y-81335639D02*
X115089361Y-81335639D01*
X117839361Y-88791202D02*
X117839361Y-81335639D01*
%TO.C,C2*%
X179419361Y-93260639D02*
X179419361Y-95610639D01*
X179419361Y-100080639D02*
X179419361Y-97730639D01*
X185174924Y-93260639D02*
X179419361Y-93260639D01*
X185174924Y-100080639D02*
X179419361Y-100080639D01*
X186239361Y-94325076D02*
X185174924Y-93260639D01*
X186239361Y-94325076D02*
X186239361Y-95610639D01*
X186239361Y-99016202D02*
X185174924Y-100080639D01*
X186239361Y-99016202D02*
X186239361Y-97730639D01*
X186873111Y-98911889D02*
X186873111Y-98124389D01*
X187266861Y-98518139D02*
X186479361Y-98518139D01*
%TO.C,C12*%
X170618109Y-101760639D02*
X172040613Y-101760639D01*
X170618109Y-103580639D02*
X172040613Y-103580639D01*
%TO.C,RV8*%
X110869361Y-71515639D02*
X110869361Y-74275639D01*
X116059361Y-71515639D02*
X110869361Y-71515639D01*
X116059361Y-71515639D02*
X116059361Y-74275639D01*
X116059361Y-74275639D02*
X110869361Y-74275639D01*
X117329361Y-71515639D02*
X118709361Y-71515639D01*
X118709361Y-71515639D02*
X118709361Y-72895639D01*
%TO.C,J4*%
X192174361Y-88550639D02*
X192174361Y-87170639D01*
X193554361Y-88550639D02*
X192174361Y-88550639D01*
X194824361Y-85790639D02*
X197474361Y-85790639D01*
X194824361Y-88550639D02*
X194824361Y-85790639D01*
X194824361Y-88550639D02*
X197474361Y-88550639D01*
X197474361Y-88550639D02*
X197474361Y-85790639D01*
%TO.C,C5*%
X156118109Y-85760639D02*
X157540613Y-85760639D01*
X156118109Y-87580639D02*
X157540613Y-87580639D01*
%TO.C,A1*%
X106756861Y-96670639D02*
X106756861Y-99160639D01*
X106756861Y-99160639D02*
X107670381Y-99160639D01*
X106756861Y-100508578D02*
X106756861Y-99160639D01*
X106756861Y-102435639D02*
X106756861Y-101432700D01*
X106756861Y-102770639D02*
X107672861Y-102770639D01*
X106756861Y-110570639D02*
X107672861Y-110570639D01*
X106756861Y-110905639D02*
X106756861Y-102435639D01*
X106756861Y-111908578D02*
X106756861Y-110905639D01*
X106756861Y-114180639D02*
X106756861Y-112832699D01*
X106756861Y-114180639D02*
X107670381Y-114180639D01*
X106756861Y-116670639D02*
X106756861Y-114180639D01*
X107176861Y-117250315D02*
X107176861Y-117760639D01*
X107176924Y-96400639D02*
X106819861Y-96400639D01*
X107176924Y-116940639D02*
X106819861Y-116940639D01*
X109296861Y-96060639D02*
X109716861Y-96060639D01*
X109296861Y-96400639D02*
X109716861Y-96400639D01*
X109296861Y-116940639D02*
X109716861Y-116940639D01*
X109296861Y-117280639D02*
X109296861Y-117760639D01*
X109296861Y-117280639D02*
X109716861Y-117280639D01*
X110060861Y-102770639D02*
X111276861Y-102770639D01*
X110060861Y-110570639D02*
X111276861Y-110570639D01*
X110063341Y-99160639D02*
X154670381Y-99160639D01*
X110063341Y-114180639D02*
X154670381Y-114180639D01*
X111276861Y-103066729D02*
X111276861Y-102770639D01*
X111276861Y-107916729D02*
X111276861Y-105424549D01*
X111276861Y-110570639D02*
X111276861Y-110274549D01*
X111836861Y-96060639D02*
X112256861Y-96060639D01*
X111836861Y-96400639D02*
X112256861Y-96400639D01*
X111836861Y-116940639D02*
X112256861Y-116940639D01*
X111836861Y-117280639D02*
X112256861Y-117280639D01*
X114376861Y-96060639D02*
X114796861Y-96060639D01*
X114376861Y-96400639D02*
X114796861Y-96400639D01*
X114376861Y-116940639D02*
X114796861Y-116940639D01*
X114376861Y-117280639D02*
X114796861Y-117280639D01*
X116916861Y-96060639D02*
X117336861Y-96060639D01*
X116916861Y-96400639D02*
X117336861Y-96400639D01*
X116916861Y-116940639D02*
X117336861Y-116940639D01*
X116916861Y-117280639D02*
X117336861Y-117280639D01*
X119456861Y-96060639D02*
X119876861Y-96060639D01*
X119456861Y-96400639D02*
X119876861Y-96400639D01*
X119456861Y-116940639D02*
X119876861Y-116940639D01*
X119456861Y-117280639D02*
X119876861Y-117280639D01*
X121996861Y-96060639D02*
X122416861Y-96060639D01*
X121996861Y-96400639D02*
X122416861Y-96400639D01*
X121996861Y-116940639D02*
X122416861Y-116940639D01*
X121996861Y-117280639D02*
X122416861Y-117280639D01*
X124536861Y-96060639D02*
X124956861Y-96060639D01*
X124536861Y-96400639D02*
X124956861Y-96400639D01*
X124536861Y-116940639D02*
X124956861Y-116940639D01*
X124536861Y-117280639D02*
X124956861Y-117280639D01*
X127076861Y-96060639D02*
X127496861Y-96060639D01*
X127076861Y-96400639D02*
X127496861Y-96400639D01*
X127076861Y-116940639D02*
X127496861Y-116940639D01*
X127076861Y-117280639D02*
X127496861Y-117280639D01*
X129616861Y-96060639D02*
X130036861Y-96060639D01*
X129616861Y-96400639D02*
X130036861Y-96400639D01*
X129616861Y-116940639D02*
X130036861Y-116940639D01*
X129616861Y-117280639D02*
X130036861Y-117280639D01*
X132156861Y-96060639D02*
X132576861Y-96060639D01*
X132156861Y-96400639D02*
X132576861Y-96400639D01*
X132156861Y-116940639D02*
X132576861Y-116940639D01*
X132156861Y-117280639D02*
X132576861Y-117280639D01*
X134696861Y-96060639D02*
X135116861Y-96060639D01*
X134696861Y-96400639D02*
X135116861Y-96400639D01*
X134696861Y-116940639D02*
X135116861Y-116940639D01*
X134696861Y-117280639D02*
X135116861Y-117280639D01*
X137236861Y-96060639D02*
X137656861Y-96060639D01*
X137236861Y-96400639D02*
X137656861Y-96400639D01*
X137236861Y-116940639D02*
X137656861Y-116940639D01*
X137236861Y-117280639D02*
X137656861Y-117280639D01*
X139776861Y-96060639D02*
X140196861Y-96060639D01*
X139776861Y-96400639D02*
X140196861Y-96400639D01*
X139776861Y-116940639D02*
X140196861Y-116940639D01*
X139776861Y-117280639D02*
X140196861Y-117280639D01*
X142316861Y-96060639D02*
X142736861Y-96060639D01*
X142316861Y-96400639D02*
X142736861Y-96400639D01*
X142316861Y-116940639D02*
X142736861Y-116940639D01*
X142316861Y-117280639D02*
X142736861Y-117280639D01*
X144856861Y-96060639D02*
X145276861Y-96060639D01*
X144856861Y-96400639D02*
X145276861Y-96400639D01*
X144856861Y-116940639D02*
X145276861Y-116940639D01*
X144856861Y-117280639D02*
X145276861Y-117280639D01*
X147396861Y-96060639D02*
X147816861Y-96060639D01*
X147396861Y-96400639D02*
X147816861Y-96400639D01*
X147396861Y-116940639D02*
X147816861Y-116940639D01*
X147396861Y-117280639D02*
X147816861Y-117280639D01*
X149936861Y-96060639D02*
X150356861Y-96060639D01*
X149936861Y-96400639D02*
X150356861Y-96400639D01*
X149936861Y-116940639D02*
X150356861Y-116940639D01*
X149936861Y-117280639D02*
X150356861Y-117280639D01*
X152476861Y-96060639D02*
X152896861Y-96060639D01*
X152476861Y-96400639D02*
X152896861Y-96400639D01*
X152476861Y-116940639D02*
X152896861Y-116940639D01*
X152476861Y-117280639D02*
X152896861Y-117280639D01*
X155016861Y-96060639D02*
X155436861Y-96060639D01*
X155016861Y-96400639D02*
X155436861Y-96400639D01*
X155016861Y-116940639D02*
X155436861Y-116940639D01*
X155016861Y-117280639D02*
X155436861Y-117280639D01*
X157063341Y-99160639D02*
X157976861Y-99160639D01*
X157063341Y-114180639D02*
X157976861Y-114180639D01*
X157556798Y-96400639D02*
X157913861Y-96400639D01*
X157556798Y-116940639D02*
X157913861Y-116940639D01*
X157976861Y-100508578D02*
X157976861Y-96670639D01*
X157976861Y-101432700D02*
X157976861Y-103070639D01*
X157976861Y-103070639D02*
X157976861Y-110270639D01*
X157976861Y-110270639D02*
X157976861Y-111908578D01*
X157976861Y-116670639D02*
X157976861Y-112832700D01*
X106756861Y-96670639D02*
G75*
G02*
X107176924Y-96090963I610000J0D01*
G01*
X107176861Y-117250315D02*
G75*
G02*
X106756861Y-116670639I190051J579692D01*
G01*
X157556798Y-96090963D02*
G75*
G02*
X157976930Y-96670639I-189837J-579676D01*
G01*
X157976861Y-116670639D02*
G75*
G02*
X157556798Y-117250315I-610002J1D01*
G01*
%TD*%
M02*
