M48
; DRILL file KiCad 10.0.3 date 2026-06-19T14:35:46
; FORMAT={-:-/ absolute / metric / decimal}
; #@! TF.CreationDate,2026-06-19T14:35:46+02:00
; #@! TF.GenerationSoftware,Kicad,Pcbnew,10.0.3
; #@! TF.FileFunction,Plated,1,2,PTH
FMAT,2
METRIC
; #@! TA.AperFunction,Plated,PTH,ViaDrill
T1C0.300
; #@! TA.AperFunction,Plated,PTH,ComponentDrill
T2C1.000
%
G90
G05
T1
X126.829Y-103.671
X130.829Y-84.671
X146.329Y-81.671
X152.329Y-88.171
X154.28Y-99.82
X157.329Y-77.671
X166.829Y-80.171
X167.605Y-79.664
X168.213Y-80.185
X168.329Y-89.671
X168.815Y-79.658
X169.429Y-80.171
X170.229Y-79.671
X171.029Y-80.171
X171.829Y-79.671
X171.829Y-89.671
X179.829Y-104.596
X181.329Y-101.171
X186.329Y-113.171
X187.329Y-101.671
X188.829Y-103.671
X188.829Y-108.171
X188.832Y-106.546
X189.09Y-107.414
X189.329Y-90.171
X189.829Y-79.671
T2
X108.237Y-97.781
X108.237Y-115.561
X110.777Y-97.781
X110.777Y-115.561
X112.249Y-72.896
X113.317Y-97.781
X113.317Y-115.561
X114.789Y-72.896
X115.857Y-97.781
X115.857Y-115.561
X117.329Y-72.896
X118.397Y-97.781
X118.397Y-115.561
X120.937Y-97.781
X120.937Y-115.561
X122.794Y-84.421
X122.794Y-86.961
X123.477Y-97.781
X123.477Y-115.561
X123.749Y-72.896
X126.017Y-97.781
X126.017Y-115.561
X126.289Y-72.896
X128.329Y-84.321
X128.329Y-86.861
X128.557Y-97.781
X128.557Y-115.561
X128.829Y-72.896
X131.097Y-97.781
X131.097Y-115.561
X133.637Y-97.781
X133.637Y-115.561
X134.329Y-84.331
X134.329Y-86.871
X135.249Y-72.896
X136.177Y-97.781
X136.177Y-115.561
X137.789Y-72.896
X138.717Y-97.781
X138.717Y-115.561
X140.329Y-72.896
X141.257Y-97.781
X141.257Y-115.561
X143.797Y-97.781
X143.797Y-115.561
X146.337Y-97.781
X146.337Y-115.561
X146.749Y-72.896
X148.877Y-97.781
X148.877Y-115.561
X149.289Y-72.896
X151.417Y-97.781
X151.417Y-115.561
X151.829Y-72.896
X153.957Y-97.781
X153.957Y-115.561
X156.497Y-97.781
X156.497Y-115.561
X158.249Y-72.896
X160.789Y-72.896
X163.329Y-72.896
X169.749Y-72.896
X172.289Y-72.896
X174.829Y-72.896
X181.249Y-72.896
X183.789Y-72.896
X186.329Y-72.896
X192.749Y-72.896
X193.554Y-81.171
X193.554Y-87.171
X195.289Y-72.896
X196.094Y-81.171
X196.094Y-87.171
X197.829Y-72.896
M30
