%TF.GenerationSoftware,KiCad,Pcbnew,10.0.3*%
%TF.CreationDate,2026-06-19T14:35:49+02:00*%
%TF.ProjectId,pico2-drums,7069636f-322d-4647-9275-6d732e6b6963,rev?*%
%TF.SameCoordinates,Original*%
%TF.FileFunction,Copper,L1,Top*%
%TF.FilePolarity,Positive*%
%FSLAX46Y46*%
G04 Gerber Fmt 4.6, Leading zero omitted, Abs format (unit mm)*
G04 Created by KiCad (PCBNEW 10.0.3) date 2026-06-19 14:35:49*
%MOMM*%
%LPD*%
G01*
G04 APERTURE LIST*
G04 Aperture macros list*
%AMRoundRect*
0 Rectangle with rounded corners*
0 $1 Rounding radius*
0 $2 $3 $4 $5 $6 $7 $8 $9 X,Y pos of 4 corners*
0 Add a 4 corners polygon primitive as box body*
4,1,4,$2,$3,$4,$5,$6,$7,$8,$9,$2,$3,0*
0 Add four circle primitives for the rounded corners*
1,1,$1+$1,$2,$3*
1,1,$1+$1,$4,$5*
1,1,$1+$1,$6,$7*
1,1,$1+$1,$8,$9*
0 Add four rect primitives between the rounded corners*
20,1,$1+$1,$2,$3,$4,$5,0*
20,1,$1+$1,$4,$5,$6,$7,0*
20,1,$1+$1,$6,$7,$8,$9,0*
20,1,$1+$1,$8,$9,$2,$3,0*%
%AMFreePoly0*
4,1,37,0.800000,0.796148,0.878414,0.796148,1.032228,0.765552,1.177117,0.705537,1.307515,0.618408,1.418408,0.507515,1.505537,0.377117,1.565552,0.232228,1.596148,0.078414,1.596148,-0.078414,1.565552,-0.232228,1.505537,-0.377117,1.418408,-0.507515,1.307515,-0.618408,1.177117,-0.705537,1.032228,-0.765552,0.878414,-0.796148,0.800000,-0.796148,0.800000,-0.800000,-1.400000,-0.800000,
-1.403843,-0.796157,-1.439018,-0.796157,-1.511114,-0.766294,-1.566294,-0.711114,-1.596157,-0.639018,-1.596157,-0.603843,-1.600000,-0.600000,-1.600000,0.600000,-1.596157,0.603843,-1.596157,0.639018,-1.566294,0.711114,-1.511114,0.766294,-1.439018,0.796157,-1.403843,0.796157,-1.400000,0.800000,0.800000,0.800000,0.800000,0.796148,0.800000,0.796148,$1*%
%AMFreePoly1*
4,1,37,1.403843,0.796157,1.439018,0.796157,1.511114,0.766294,1.566294,0.711114,1.596157,0.639018,1.596157,0.603843,1.600000,0.600000,1.600000,-0.600000,1.596157,-0.603843,1.596157,-0.639018,1.566294,-0.711114,1.511114,-0.766294,1.439018,-0.796157,1.403843,-0.796157,1.400000,-0.800000,-0.800000,-0.800000,-0.800000,-0.796148,-0.878414,-0.796148,-1.032228,-0.765552,-1.177117,-0.705537,
-1.307515,-0.618408,-1.418408,-0.507515,-1.505537,-0.377117,-1.565552,-0.232228,-1.596148,-0.078414,-1.596148,0.078414,-1.565552,0.232228,-1.505537,0.377117,-1.418408,0.507515,-1.307515,0.618408,-1.177117,0.705537,-1.032228,0.765552,-0.878414,0.796148,-0.800000,0.796148,-0.800000,0.800000,1.400000,0.800000,1.403843,0.796157,1.403843,0.796157,$1*%
%AMFreePoly2*
4,1,37,0.603843,0.796157,0.639018,0.796157,0.711114,0.766294,0.766294,0.711114,0.796157,0.639018,0.796157,0.603843,0.800000,0.600000,0.800000,-0.600000,0.796157,-0.603843,0.796157,-0.639018,0.766294,-0.711114,0.711114,-0.766294,0.639018,-0.796157,0.603843,-0.796157,0.600000,-0.800000,0.000000,-0.800000,0.000000,-0.796148,-0.078414,-0.796148,-0.232228,-0.765552,-0.377117,-0.705537,
-0.507515,-0.618408,-0.618408,-0.507515,-0.705537,-0.377117,-0.765552,-0.232228,-0.796148,-0.078414,-0.796148,0.078414,-0.765552,0.232228,-0.705537,0.377117,-0.618408,0.507515,-0.507515,0.618408,-0.377117,0.705537,-0.232228,0.765552,-0.078414,0.796148,0.000000,0.796148,0.000000,0.800000,0.600000,0.800000,0.603843,0.796157,0.603843,0.796157,$1*%
%AMFreePoly3*
4,1,37,0.000000,0.796148,0.078414,0.796148,0.232228,0.765552,0.377117,0.705537,0.507515,0.618408,0.618408,0.507515,0.705537,0.377117,0.765552,0.232228,0.796148,0.078414,0.796148,-0.078414,0.765552,-0.232228,0.705537,-0.377117,0.618408,-0.507515,0.507515,-0.618408,0.377117,-0.705537,0.232228,-0.765552,0.078414,-0.796148,0.000000,-0.796148,0.000000,-0.800000,-0.600000,-0.800000,
-0.603843,-0.796157,-0.639018,-0.796157,-0.711114,-0.766294,-0.766294,-0.711114,-0.796157,-0.639018,-0.796157,-0.603843,-0.800000,-0.600000,-0.800000,0.600000,-0.796157,0.603843,-0.796157,0.639018,-0.766294,0.711114,-0.711114,0.766294,-0.639018,0.796157,-0.603843,0.796157,-0.600000,0.800000,0.000000,0.800000,0.000000,0.796148,0.000000,0.796148,$1*%
G04 Aperture macros list end*
%TA.AperFunction,SMDPad,CuDef*%
%ADD10RoundRect,0.100000X-0.100000X0.637500X-0.100000X-0.637500X0.100000X-0.637500X0.100000X0.637500X0*%
%TD*%
%TA.AperFunction,ComponentPad*%
%ADD11R,1.700000X1.700000*%
%TD*%
%TA.AperFunction,ComponentPad*%
%ADD12C,1.700000*%
%TD*%
%TA.AperFunction,SMDPad,CuDef*%
%ADD13RoundRect,0.250000X0.650000X-0.325000X0.650000X0.325000X-0.650000X0.325000X-0.650000X-0.325000X0*%
%TD*%
%TA.AperFunction,SMDPad,CuDef*%
%ADD14RoundRect,0.250000X-1.500000X-0.550000X1.500000X-0.550000X1.500000X0.550000X-1.500000X0.550000X0*%
%TD*%
%TA.AperFunction,SMDPad,CuDef*%
%ADD15RoundRect,0.250000X1.500000X0.550000X-1.500000X0.550000X-1.500000X-0.550000X1.500000X-0.550000X0*%
%TD*%
%TA.AperFunction,SMDPad,CuDef*%
%ADD16RoundRect,0.250000X0.625000X-0.312500X0.625000X0.312500X-0.625000X0.312500X-0.625000X-0.312500X0*%
%TD*%
%TA.AperFunction,SMDPad,CuDef*%
%ADD17RoundRect,0.250000X0.325000X0.650000X-0.325000X0.650000X-0.325000X-0.650000X0.325000X-0.650000X0*%
%TD*%
%TA.AperFunction,SMDPad,CuDef*%
%ADD18RoundRect,0.250000X-0.325000X-0.650000X0.325000X-0.650000X0.325000X0.650000X-0.325000X0.650000X0*%
%TD*%
%TA.AperFunction,SMDPad,CuDef*%
%ADD19RoundRect,0.100000X-0.637500X-0.100000X0.637500X-0.100000X0.637500X0.100000X-0.637500X0.100000X0*%
%TD*%
%TA.AperFunction,SMDPad,CuDef*%
%ADD20RoundRect,0.250000X-0.650000X0.325000X-0.650000X-0.325000X0.650000X-0.325000X0.650000X0.325000X0*%
%TD*%
%TA.AperFunction,SMDPad,CuDef*%
%ADD21RoundRect,0.250000X-0.625000X0.312500X-0.625000X-0.312500X0.625000X-0.312500X0.625000X0.312500X0*%
%TD*%
%TA.AperFunction,SMDPad,CuDef*%
%ADD22RoundRect,0.150000X-0.587500X-0.150000X0.587500X-0.150000X0.587500X0.150000X-0.587500X0.150000X0*%
%TD*%
%TA.AperFunction,SMDPad,CuDef*%
%ADD23RoundRect,0.250000X-0.550000X1.500000X-0.550000X-1.500000X0.550000X-1.500000X0.550000X1.500000X0*%
%TD*%
%TA.AperFunction,SMDPad,CuDef*%
%ADD24RoundRect,0.250000X1.000000X-1.500000X1.000000X1.500000X-1.000000X1.500000X-1.000000X-1.500000X0*%
%TD*%
%TA.AperFunction,SMDPad,CuDef*%
%ADD25FreePoly0,90.000000*%
%TD*%
%TA.AperFunction,ComponentPad*%
%ADD26RoundRect,0.200000X0.600000X-0.600000X0.600000X0.600000X-0.600000X0.600000X-0.600000X-0.600000X0*%
%TD*%
%TA.AperFunction,SMDPad,CuDef*%
%ADD27RoundRect,0.800000X0.000010X-0.800000X0.000010X0.800000X-0.000010X0.800000X-0.000010X-0.800000X0*%
%TD*%
%TA.AperFunction,ComponentPad*%
%ADD28C,1.600000*%
%TD*%
%TA.AperFunction,SMDPad,CuDef*%
%ADD29FreePoly1,90.000000*%
%TD*%
%TA.AperFunction,ComponentPad*%
%ADD30FreePoly2,90.000000*%
%TD*%
%TA.AperFunction,ComponentPad*%
%ADD31FreePoly3,90.000000*%
%TD*%
%TA.AperFunction,ViaPad*%
%ADD32C,0.600000*%
%TD*%
%TA.AperFunction,Conductor*%
%ADD33C,0.200000*%
%TD*%
G04 APERTURE END LIST*
D10*
%TO.P,U2,16,VDD_16*%
%TO.N,Net-(A1-3V3)*%
X171604361Y-87533139D03*
%TO.P,U2,15,SDA_15*%
%TO.N,Net-(A1-GPIO1)*%
X170954361Y-87533139D03*
%TO.P,U2,14,SCL_14*%
%TO.N,Net-(A1-GPIO0)*%
X170304361Y-87533139D03*
%TO.P,U2,13,A1_13*%
%TO.N,GND*%
X169654361Y-87533139D03*
%TO.P,U2,12,A0_12*%
X169004361Y-87533139D03*
%TO.P,U2,11,COM_11*%
%TO.N,Net-(U2-COM)*%
X168354361Y-87533139D03*
%TO.P,U2,10,REF_10*%
%TO.N,Net-(U2-REF)*%
X167704361Y-87533139D03*
%TO.P,U2,9,GND_9*%
%TO.N,GND*%
X167054361Y-87533139D03*
%TO.P,U2,8,CH7_8*%
%TO.N,Net-(U2-CH7)*%
X167054361Y-81808139D03*
%TO.P,U2,7,CH6_7*%
%TO.N,Net-(U2-CH6)*%
X167704361Y-81808139D03*
%TO.P,U2,6,CH5_6*%
%TO.N,Net-(U2-CH5)*%
X168354361Y-81808139D03*
%TO.P,U2,5,CH4_5*%
%TO.N,Net-(U2-CH4)*%
X169004361Y-81808139D03*
%TO.P,U2,4,CH3_4*%
%TO.N,Net-(U2-CH3)*%
X169654361Y-81808139D03*
%TO.P,U2,3,CH2_3*%
%TO.N,Net-(U2-CH2)*%
X170304361Y-81808139D03*
%TO.P,U2,2,CH1_2*%
%TO.N,Net-(U2-CH1)*%
X170954361Y-81808139D03*
%TO.P,U2,1,CH0_1*%
%TO.N,Net-(U2-CH0)*%
X171604361Y-81808139D03*
%TD*%
D11*
%TO.P,J7,1,Pin_1_1*%
%TO.N,Net-(A1-VSYS)*%
X122794361Y-86960639D03*
D12*
%TO.P,J7,2,Pin_2_2*%
%TO.N,GND*%
X122794361Y-84420639D03*
%TD*%
D11*
%TO.P,RV5,1,1_1*%
%TO.N,Net-(U3-K)*%
X151829361Y-72895639D03*
D12*
%TO.P,RV5,2,2_2*%
%TO.N,Net-(U2-CH4)*%
X149289361Y-72895639D03*
%TO.P,RV5,3,3_3*%
%TO.N,Net-(U2-COM)*%
X146749361Y-72895639D03*
%TD*%
D13*
%TO.P,C6,1*%
%TO.N,Net-(A1-3V3)*%
X176829361Y-85145639D03*
%TO.P,C6,2*%
%TO.N,GND*%
X176829361Y-82195639D03*
%TD*%
D11*
%TO.P,SW1,1,1_1*%
%TO.N,Net-(A1-GPIO15)*%
X128329361Y-84320639D03*
D12*
%TO.P,SW1,2,2_2*%
%TO.N,Net-(A1-3V3)*%
X128329361Y-86860639D03*
%TD*%
D14*
%TO.P,C11,1*%
%TO.N,Net-(U1-CPVDD)*%
X168529361Y-96670639D03*
%TO.P,C11,2*%
%TO.N,GNDA*%
X174129361Y-96670639D03*
%TD*%
D15*
%TO.P,C8,1*%
%TO.N,Net-(U1-VNEG)*%
X180191861Y-115195639D03*
%TO.P,C8,2*%
%TO.N,GNDA*%
X174591861Y-115195639D03*
%TD*%
D16*
%TO.P,R1,1*%
%TO.N,Net-(A1-3V3)*%
X152304361Y-86633139D03*
%TO.P,R1,2*%
%TO.N,Net-(U3-K)*%
X152304361Y-83708139D03*
%TD*%
%TO.P,R7,1*%
%TO.N,Net-(A1-GPIO15)*%
X163329361Y-107633139D03*
%TO.P,R7,2*%
%TO.N,GND*%
X163329361Y-104708139D03*
%TD*%
%TO.P,R5,1*%
%TO.N,Net-(J5-Pin_2)*%
X182829361Y-82595639D03*
%TO.P,R5,2*%
%TO.N,Net-(U1-OUTR)*%
X182829361Y-79670639D03*
%TD*%
D17*
%TO.P,C7,1*%
%TO.N,Net-(U2-REF)*%
X163304361Y-86670639D03*
%TO.P,C7,2*%
%TO.N,GND*%
X160354361Y-86670639D03*
%TD*%
D18*
%TO.P,C14,1*%
%TO.N,Net-(U1-LDOO)*%
X190854361Y-104695639D03*
%TO.P,C14,2*%
%TO.N,Net-(C13-Pad2)*%
X193804361Y-104695639D03*
%TD*%
D19*
%TO.P,U1,1,CPVDD_1*%
%TO.N,Net-(U1-CPVDD)*%
X181466861Y-103245639D03*
%TO.P,U1,2,CAPP_2*%
%TO.N,Net-(U1-CAPP)*%
X181466861Y-103895639D03*
%TO.P,U1,3,CPGND_3*%
%TO.N,GNDA*%
X181466861Y-104545639D03*
%TO.P,U1,4,CAPM_4*%
%TO.N,Net-(U1-CAPM)*%
X181466861Y-105195639D03*
%TO.P,U1,5,VNEG_5*%
%TO.N,Net-(U1-VNEG)*%
X181466861Y-105845639D03*
%TO.P,U1,6,OUTL_6*%
%TO.N,Net-(U1-OUTL)*%
X181466861Y-106495639D03*
%TO.P,U1,7,OUTR_7*%
%TO.N,Net-(U1-OUTR)*%
X181466861Y-107145639D03*
%TO.P,U1,8,AVDD_8*%
%TO.N,Net-(A1-3V3)*%
X181466861Y-107795639D03*
%TO.P,U1,9,AGND_9*%
%TO.N,GNDA*%
X181466861Y-108445639D03*
%TO.P,U1,10,DEMP_10*%
%TO.N,GND*%
X181466861Y-109095639D03*
%TO.P,U1,11,FLT_11*%
X187191861Y-109095639D03*
%TO.P,U1,12,SCK_12*%
X187191861Y-108445639D03*
%TO.P,U1,13,BCK_13*%
%TO.N,Net-(A1-GPIO16)*%
X187191861Y-107795639D03*
%TO.P,U1,14,DIN_14*%
%TO.N,Net-(A1-GPIO18)*%
X187191861Y-107145639D03*
%TO.P,U1,15,LRCK_15*%
%TO.N,Net-(A1-GPIO17)*%
X187191861Y-106495639D03*
%TO.P,U1,16,FMT_16*%
%TO.N,GND*%
X187191861Y-105845639D03*
%TO.P,U1,17,XSMT_17*%
%TO.N,Net-(A1-3V3)*%
X187191861Y-105195639D03*
%TO.P,U1,18,LDOO_18*%
%TO.N,Net-(U1-LDOO)*%
X187191861Y-104545639D03*
%TO.P,U1,19,DGND_19*%
%TO.N,Net-(U1-DGND)*%
X187191861Y-103895639D03*
%TO.P,U1,20,DVDD_20*%
%TO.N,Net-(A1-3V3)*%
X187191861Y-103245639D03*
%TD*%
D20*
%TO.P,C10,1*%
%TO.N,GNDA*%
X187829361Y-79695639D03*
%TO.P,C10,2*%
%TO.N,Net-(J5-Pin_2)*%
X187829361Y-82645639D03*
%TD*%
D14*
%TO.P,C13,1*%
%TO.N,Net-(U1-LDOO)*%
X190529361Y-96670639D03*
%TO.P,C13,2*%
%TO.N,Net-(C13-Pad2)*%
X196129361Y-96670639D03*
%TD*%
D11*
%TO.P,RV2,1,1_1*%
%TO.N,Net-(U3-K)*%
X186329361Y-72895639D03*
D12*
%TO.P,RV2,2,2_2*%
%TO.N,Net-(U2-CH1)*%
X183789361Y-72895639D03*
%TO.P,RV2,3,3_3*%
%TO.N,Net-(U2-COM)*%
X181249361Y-72895639D03*
%TD*%
D11*
%TO.P,J5,1,Pin_1_1*%
%TO.N,GNDA*%
X193554361Y-81170639D03*
D12*
%TO.P,J5,2,Pin_2_2*%
%TO.N,Net-(J5-Pin_2)*%
X196094361Y-81170639D03*
%TD*%
D11*
%TO.P,J6,1,Pin_1_1*%
%TO.N,GND*%
X134329361Y-86870639D03*
D12*
%TO.P,J6,2,Pin_2_2*%
%TO.N,Net-(J6-Pin_2)*%
X134329361Y-84330639D03*
%TD*%
D11*
%TO.P,RV3,1,1_1*%
%TO.N,Net-(U3-K)*%
X174829361Y-72895639D03*
D12*
%TO.P,RV3,2,2_2*%
%TO.N,Net-(U2-CH2)*%
X172289361Y-72895639D03*
%TO.P,RV3,3,3_3*%
%TO.N,Net-(U2-COM)*%
X169749361Y-72895639D03*
%TD*%
D21*
%TO.P,R6,1*%
%TO.N,Net-(J6-Pin_2)*%
X139829361Y-83208139D03*
%TO.P,R6,2*%
%TO.N,Net-(R2-Pad1)*%
X139829361Y-86133139D03*
%TD*%
D11*
%TO.P,RV6,1,1_1*%
%TO.N,Net-(U3-K)*%
X140329361Y-72895639D03*
D12*
%TO.P,RV6,2,2_2*%
%TO.N,Net-(U2-CH5)*%
X137789361Y-72895639D03*
%TO.P,RV6,3,3_3*%
%TO.N,Net-(U2-COM)*%
X135249361Y-72895639D03*
%TD*%
D22*
%TO.P,U3,1,K_1*%
%TO.N,Net-(U3-K)*%
X155954361Y-81220639D03*
%TO.P,U3,2,REF_2*%
X155954361Y-83120639D03*
%TO.P,U3,3,A_3*%
%TO.N,GND*%
X157829361Y-82170639D03*
%TD*%
D11*
%TO.P,RV1,1,1_1*%
%TO.N,Net-(U3-K)*%
X197829361Y-72895639D03*
D12*
%TO.P,RV1,2,2_2*%
%TO.N,Net-(U2-CH0)*%
X195289361Y-72895639D03*
%TO.P,RV1,3,3_3*%
%TO.N,Net-(U2-COM)*%
X192749361Y-72895639D03*
%TD*%
D23*
%TO.P,C15,1*%
%TO.N,Net-(U1-DGND)*%
X194829361Y-111870639D03*
%TO.P,C15,2*%
%TO.N,GND*%
X194829361Y-117470639D03*
%TD*%
D20*
%TO.P,C16,1*%
%TO.N,Net-(U1-DGND)*%
X186329361Y-114195639D03*
%TO.P,C16,2*%
%TO.N,GND*%
X186329361Y-117145639D03*
%TD*%
D23*
%TO.P,C3,1*%
%TO.N,Net-(U1-CAPP)*%
X166691861Y-112395639D03*
%TO.P,C3,2*%
%TO.N,Net-(U1-CAPM)*%
X166691861Y-117995639D03*
%TD*%
D21*
%TO.P,R3,1*%
%TO.N,Net-(R2-Pad1)*%
X139829361Y-88370639D03*
%TO.P,R3,2*%
%TO.N,GND*%
X139829361Y-91295639D03*
%TD*%
D16*
%TO.P,R2,1*%
%TO.N,Net-(R2-Pad1)*%
X144829361Y-86058139D03*
%TO.P,R2,2*%
%TO.N,Net-(A1-GPIO14)*%
X144829361Y-83133139D03*
%TD*%
D11*
%TO.P,RV7,1,1_1*%
%TO.N,Net-(U3-K)*%
X128829361Y-72895639D03*
D12*
%TO.P,RV7,2,2_2*%
%TO.N,Net-(U2-CH6)*%
X126289361Y-72895639D03*
%TO.P,RV7,3,3_3*%
%TO.N,Net-(U2-COM)*%
X123749361Y-72895639D03*
%TD*%
D11*
%TO.P,RV4,1,1_1*%
%TO.N,Net-(U3-K)*%
X163329361Y-72895639D03*
D12*
%TO.P,RV4,2,2_2*%
%TO.N,Net-(U2-CH3)*%
X160789361Y-72895639D03*
%TO.P,RV4,3,3_3*%
%TO.N,Net-(U2-COM)*%
X158249361Y-72895639D03*
%TD*%
D21*
%TO.P,R4,1*%
%TO.N,Net-(J4-Pin_2)*%
X182829361Y-85670639D03*
%TO.P,R4,2*%
%TO.N,Net-(U1-OUTL)*%
X182829361Y-88595639D03*
%TD*%
D13*
%TO.P,C9,1*%
%TO.N,GNDA*%
X187829361Y-88645639D03*
%TO.P,C9,2*%
%TO.N,Net-(J4-Pin_2)*%
X187829361Y-85695639D03*
%TD*%
D20*
%TO.P,C1,1*%
%TO.N,Net-(A1-3V3)*%
X177691861Y-106220639D03*
%TO.P,C1,2*%
%TO.N,GNDA*%
X177691861Y-109170639D03*
%TD*%
D24*
%TO.P,C17,1*%
%TO.N,Net-(A1-VSYS)*%
X113579361Y-88845639D03*
%TO.P,C17,2*%
%TO.N,GND*%
X113579361Y-82345639D03*
%TD*%
D15*
%TO.P,C2,1*%
%TO.N,Net-(A1-3V3)*%
X185629361Y-96670639D03*
%TO.P,C2,2*%
%TO.N,GNDA*%
X180029361Y-96670639D03*
%TD*%
D18*
%TO.P,C12,1*%
%TO.N,Net-(U1-CPVDD)*%
X169854361Y-102670639D03*
%TO.P,C12,2*%
%TO.N,GNDA*%
X172804361Y-102670639D03*
%TD*%
D11*
%TO.P,RV8,1,1_1*%
%TO.N,Net-(U3-K)*%
X117329361Y-72895639D03*
D12*
%TO.P,RV8,2,2_2*%
%TO.N,Net-(U2-CH7)*%
X114789361Y-72895639D03*
%TO.P,RV8,3,3_3*%
%TO.N,Net-(U2-COM)*%
X112249361Y-72895639D03*
%TD*%
D11*
%TO.P,J4,1,Pin_1_1*%
%TO.N,GNDA*%
X193554361Y-87170639D03*
D12*
%TO.P,J4,2,Pin_2_2*%
%TO.N,Net-(J4-Pin_2)*%
X196094361Y-87170639D03*
%TD*%
D18*
%TO.P,C5,1*%
%TO.N,Net-(U3-K)*%
X155354361Y-86670639D03*
%TO.P,C5,2*%
%TO.N,GND*%
X158304361Y-86670639D03*
%TD*%
D25*
%TO.P,A1,1,GPIO0_1*%
%TO.N,Net-(A1-GPIO0)*%
X108236861Y-116360639D03*
D26*
X108236861Y-115560639D03*
D27*
%TO.P,A1,2,GPIO1_2*%
%TO.N,Net-(A1-GPIO1)*%
X110776861Y-116360639D03*
D28*
X110776861Y-115560639D03*
D29*
%TO.P,A1,3,GND_3*%
%TO.N,GND*%
X113316861Y-116360639D03*
D30*
X113316861Y-115560639D03*
D27*
%TO.P,A1,4,GPIO2_4*%
%TO.N,unconnected-(A1-GPIO2-Pad4)*%
X115856861Y-116360639D03*
D28*
X115856861Y-115560639D03*
D27*
%TO.P,A1,5,GPIO3_5*%
%TO.N,unconnected-(A1-GPIO3-Pad5)*%
X118396861Y-116360639D03*
D28*
X118396861Y-115560639D03*
D27*
%TO.P,A1,6,GPIO4_6*%
%TO.N,unconnected-(A1-GPIO4-Pad6)*%
X120936861Y-116360639D03*
D28*
X120936861Y-115560639D03*
D27*
%TO.P,A1,7,GPIO5_7*%
%TO.N,unconnected-(A1-GPIO5-Pad7)*%
X123476861Y-116360639D03*
D28*
X123476861Y-115560639D03*
D29*
%TO.P,A1,8,GND_8*%
%TO.N,GND*%
X126016861Y-116360639D03*
D30*
X126016861Y-115560639D03*
D27*
%TO.P,A1,9,GPIO6_9*%
%TO.N,unconnected-(A1-GPIO6-Pad9)*%
X128556861Y-116360639D03*
D28*
X128556861Y-115560639D03*
D27*
%TO.P,A1,10,GPIO7_10*%
%TO.N,unconnected-(A1-GPIO7-Pad10)*%
X131096861Y-116360639D03*
D28*
X131096861Y-115560639D03*
D27*
%TO.P,A1,11,GPIO8_11*%
%TO.N,unconnected-(A1-GPIO8-Pad11)*%
X133636861Y-116360639D03*
D28*
X133636861Y-115560639D03*
D27*
%TO.P,A1,12,GPIO9_12*%
%TO.N,unconnected-(A1-GPIO9-Pad12)*%
X136176861Y-116360639D03*
D28*
X136176861Y-115560639D03*
D29*
%TO.P,A1,13,GND_13*%
%TO.N,GND*%
X138716861Y-116360639D03*
D30*
X138716861Y-115560639D03*
D27*
%TO.P,A1,14,GPIO10_14*%
%TO.N,unconnected-(A1-GPIO10-Pad14)*%
X141256861Y-116360639D03*
D28*
X141256861Y-115560639D03*
D27*
%TO.P,A1,15,GPIO11_15*%
%TO.N,unconnected-(A1-GPIO11-Pad15)*%
X143796861Y-116360639D03*
D28*
X143796861Y-115560639D03*
D27*
%TO.P,A1,16,GPIO12_16*%
%TO.N,unconnected-(A1-GPIO12-Pad16)*%
X146336861Y-116360639D03*
D28*
X146336861Y-115560639D03*
D27*
%TO.P,A1,17,GPIO13_17*%
%TO.N,unconnected-(A1-GPIO13-Pad17)*%
X148876861Y-116360639D03*
D28*
X148876861Y-115560639D03*
D29*
%TO.P,A1,18,GND_18*%
%TO.N,GND*%
X151416861Y-116360639D03*
D30*
X151416861Y-115560639D03*
D27*
%TO.P,A1,19,GPIO14_19*%
%TO.N,Net-(A1-GPIO14)*%
X153956861Y-116360639D03*
D28*
X153956861Y-115560639D03*
D27*
%TO.P,A1,20,GPIO15_20*%
%TO.N,Net-(A1-GPIO15)*%
X156496861Y-116360639D03*
D28*
X156496861Y-115560639D03*
%TO.P,A1,21,GPIO16_21*%
%TO.N,Net-(A1-GPIO16)*%
X156496861Y-97780639D03*
D27*
X156496861Y-96980639D03*
D28*
%TO.P,A1,22,GPIO17_22*%
%TO.N,Net-(A1-GPIO17)*%
X153956861Y-97780639D03*
D27*
X153956861Y-96980639D03*
D31*
%TO.P,A1,23,GND_23*%
%TO.N,GND*%
X151416861Y-97780639D03*
D25*
X151416861Y-96980639D03*
D28*
%TO.P,A1,24,GPIO18_24*%
%TO.N,Net-(A1-GPIO18)*%
X148876861Y-97780639D03*
D27*
X148876861Y-96980639D03*
D28*
%TO.P,A1,25,GPIO19_25*%
%TO.N,unconnected-(A1-GPIO19-Pad25)*%
X146336861Y-97780639D03*
D27*
X146336861Y-96980639D03*
D28*
%TO.P,A1,26,GPIO20_26*%
%TO.N,unconnected-(A1-GPIO20-Pad26)*%
X143796861Y-97780639D03*
D27*
X143796861Y-96980639D03*
D28*
%TO.P,A1,27,GPIO21_27*%
%TO.N,unconnected-(A1-GPIO21-Pad27)*%
X141256861Y-97780639D03*
D27*
X141256861Y-96980639D03*
D31*
%TO.P,A1,28,GND_28*%
%TO.N,GND*%
X138716861Y-97780639D03*
D25*
X138716861Y-96980639D03*
D28*
%TO.P,A1,29,GPIO22_29*%
%TO.N,unconnected-(A1-GPIO22-Pad29)*%
X136176861Y-97780639D03*
D27*
X136176861Y-96980639D03*
D28*
%TO.P,A1,30,RUN_30*%
%TO.N,unconnected-(A1-RUN-Pad30)*%
X133636861Y-97780639D03*
D27*
X133636861Y-96980639D03*
D28*
%TO.P,A1,31,GPIO26_ADC0_31*%
%TO.N,unconnected-(A1-GPIO26_ADC0-Pad31)*%
X131096861Y-97780639D03*
D27*
X131096861Y-96980639D03*
D28*
%TO.P,A1,32,GPIO27_ADC1_32*%
%TO.N,unconnected-(A1-GPIO27_ADC1-Pad32)*%
X128556861Y-97780639D03*
D27*
X128556861Y-96980639D03*
D31*
%TO.P,A1,33,AGND_33*%
%TO.N,GNDA*%
X126016861Y-97780639D03*
D25*
X126016861Y-96980639D03*
D28*
%TO.P,A1,34,GPIO28_ADC2_34*%
%TO.N,unconnected-(A1-GPIO28_ADC2-Pad34)*%
X123476861Y-97780639D03*
D27*
X123476861Y-96980639D03*
D28*
%TO.P,A1,35,ADC_VREF_35*%
%TO.N,unconnected-(A1-ADC_VREF-Pad35)*%
X120936861Y-97780639D03*
D27*
X120936861Y-96980639D03*
D28*
%TO.P,A1,36,3V3_36*%
%TO.N,Net-(A1-3V3)*%
X118396861Y-97780639D03*
D27*
X118396861Y-96980639D03*
D28*
%TO.P,A1,37,3V3_EN_37*%
%TO.N,unconnected-(A1-3V3_EN-Pad37)*%
X115856861Y-97780639D03*
D27*
X115856861Y-96980639D03*
D31*
%TO.P,A1,38,GND_38*%
%TO.N,GND*%
X113316861Y-97780639D03*
D25*
X113316861Y-96980639D03*
D28*
%TO.P,A1,39,VSYS_39*%
%TO.N,Net-(A1-VSYS)*%
X110776861Y-97780639D03*
D27*
X110776861Y-96980639D03*
D28*
%TO.P,A1,40,VBUS_40*%
%TO.N,unconnected-(A1-VBUS-Pad40)*%
X108236861Y-97780639D03*
D27*
X108236861Y-96980639D03*
%TD*%
D32*
%TO.N,GNDA*%
X189329361Y-90170639D03*
X126829361Y-103670639D03*
X179829361Y-104595639D03*
X189829361Y-79670639D03*
%TO.N,Net-(A1-GPIO17)*%
X154280483Y-99820300D03*
X188831549Y-106545731D03*
%TO.N,Net-(A1-GPIO18)*%
X189089524Y-107414121D03*
%TO.N,Net-(A1-3V3)*%
X187329361Y-101670639D03*
X152329361Y-88170639D03*
X181329361Y-101170639D03*
X171829361Y-89670639D03*
%TO.N,Net-(A1-GPIO16)*%
X188829361Y-108170639D03*
%TO.N,Net-(A1-GPIO15)*%
X130829361Y-84670639D03*
%TO.N,Net-(A1-GPIO14)*%
X146329361Y-81670639D03*
%TO.N,Net-(U1-DGND)*%
X186329361Y-113170639D03*
X188829361Y-103670639D03*
%TO.N,Net-(U2-COM)*%
X168329361Y-89670639D03*
X157329361Y-77670639D03*
%TO.N,Net-(U2-CH0)*%
X171829361Y-79670639D03*
%TO.N,Net-(U2-CH1)*%
X171029358Y-80170639D03*
%TO.N,Net-(U2-CH2)*%
X170229355Y-79670639D03*
%TO.N,Net-(U2-CH3)*%
X169429352Y-80170639D03*
%TO.N,Net-(U2-CH4)*%
X168814773Y-79658490D03*
%TO.N,Net-(U2-CH5)*%
X168212662Y-80185240D03*
%TO.N,Net-(U2-CH6)*%
X167605412Y-79664421D03*
%TO.N,Net-(U2-CH7)*%
X166829361Y-80170639D03*
%TD*%
%TO.N,GNDA*%
D33*
X181466861Y-104545639D02*
X179879361Y-104545639D01*
X179879361Y-104545639D02*
X179829361Y-104595639D01*
X181466861Y-108445639D02*
X178416861Y-108445639D01*
X178416861Y-108445639D02*
X177691861Y-109170639D01*
%TO.N,GND*%
X109676861Y-93670639D02*
X109676861Y-98236275D01*
X109676861Y-93670639D02*
X109676861Y-103205029D01*
X109829361Y-112055491D02*
X107131861Y-114752991D01*
X109676861Y-103205029D02*
X109829361Y-103357529D01*
X109829361Y-103357529D02*
X109829361Y-112055491D01*
X107131861Y-117969819D02*
X107427681Y-118265639D01*
X107427681Y-118265639D02*
X111411861Y-118265639D01*
X107131861Y-114752991D02*
X107131861Y-117969819D01*
X111411861Y-118265639D02*
X113316861Y-116360639D01*
X150316861Y-98880639D02*
X151416861Y-97780639D01*
%TO.N,GNDA*%
X154829361Y-104670639D02*
X154829361Y-104012917D01*
X154829361Y-104012917D02*
X155811780Y-103030498D01*
X155811780Y-103030498D02*
X159334758Y-103030498D01*
%TO.N,Net-(A1-GPIO1)*%
X110776861Y-115560639D02*
X113329361Y-113008139D01*
X113329361Y-113008139D02*
X113329361Y-103170639D01*
X113329361Y-103170639D02*
X114045639Y-102454361D01*
X114045639Y-102454361D02*
X159045639Y-102454361D01*
X159045639Y-102454361D02*
X170954361Y-90545639D01*
X170954361Y-90545639D02*
X170954361Y-87533139D01*
%TO.N,GNDA*%
X173029361Y-95570639D02*
X174129361Y-96670639D01*
X128112365Y-104670639D02*
X154829361Y-104670639D01*
X166794617Y-95570639D02*
X173029361Y-95570639D01*
X128062365Y-104620639D02*
X128112365Y-104670639D01*
X127779361Y-104620639D02*
X128062365Y-104620639D01*
X126829361Y-103670639D02*
X127779361Y-104620639D01*
X159334758Y-103030498D02*
X166794617Y-95570639D01*
%TO.N,Net-(A1-3V3)*%
X176829361Y-86670639D02*
X175966861Y-87533139D01*
X171604361Y-87533139D02*
X175966861Y-87533139D01*
X176829361Y-85145639D02*
X176829361Y-86670639D01*
X176829361Y-87870639D02*
X185629361Y-96670639D01*
X176829361Y-87870639D02*
X176829361Y-85145639D01*
%TO.N,GND*%
X169654361Y-86795640D02*
X174254361Y-82195639D01*
X174254361Y-82195639D02*
X176829361Y-82195639D01*
X138716861Y-96980639D02*
X140616861Y-98880639D01*
X140616861Y-98880639D02*
X150316861Y-98880639D01*
%TO.N,GNDA*%
X177691861Y-109170639D02*
X182241861Y-113720639D01*
X182241861Y-113720639D02*
X182241861Y-115980383D01*
X182241861Y-115980383D02*
X181926605Y-116295639D01*
X181926605Y-116295639D02*
X175691861Y-116295639D01*
X175691861Y-116295639D02*
X174591861Y-115195639D01*
%TO.N,GND*%
X151416861Y-96980639D02*
X151416861Y-93558139D01*
X151416861Y-93558139D02*
X158304361Y-86670639D01*
X113316861Y-96980639D02*
X115221861Y-98885639D01*
X115221861Y-98885639D02*
X137611861Y-98885639D01*
X137611861Y-98885639D02*
X138716861Y-97780639D01*
X134329361Y-86870639D02*
X135404361Y-86870639D01*
X135404361Y-86870639D02*
X139829361Y-91295639D01*
X138716861Y-115560639D02*
X139816861Y-114460639D01*
X139816861Y-114460639D02*
X150316861Y-114460639D01*
X150316861Y-114460639D02*
X151416861Y-115560639D01*
X126016861Y-115560639D02*
X127116861Y-114460639D01*
X127116861Y-114460639D02*
X137616861Y-114460639D01*
X137616861Y-114460639D02*
X138716861Y-115560639D01*
X126016861Y-115560639D02*
X124916861Y-114460639D01*
X124916861Y-114460639D02*
X114416861Y-114460639D01*
X114416861Y-114460639D02*
X113316861Y-115560639D01*
%TO.N,Net-(A1-GPIO0)*%
X139158821Y-100554344D02*
X138518838Y-99914361D01*
X170304361Y-87533139D02*
X170304361Y-88544168D01*
X170304361Y-88544168D02*
X158294185Y-100554344D01*
X112829361Y-103104954D02*
X112829361Y-111768139D01*
X116019954Y-99914361D02*
X112829361Y-103104954D01*
X112829361Y-111768139D02*
X108236861Y-116360639D01*
X158294185Y-100554344D02*
X139158821Y-100554344D01*
X138518838Y-99914361D02*
X116019954Y-99914361D01*
%TO.N,GND*%
X113579361Y-82345639D02*
X109676861Y-86248139D01*
X195929361Y-110135895D02*
X194889105Y-109095639D01*
X186154361Y-108064095D02*
X186154361Y-106145640D01*
X186454362Y-105845639D02*
X187191861Y-105845639D01*
X163329361Y-104708139D02*
X163329361Y-105543774D01*
X163329361Y-104708139D02*
X165591861Y-106970639D01*
X164191861Y-84670639D02*
X167054361Y-87533139D01*
X130829361Y-83370639D02*
X130829361Y-82170639D01*
X154412496Y-114460639D02*
X152516861Y-114460639D01*
X158304361Y-82645639D02*
X157829361Y-82170639D01*
X195929361Y-116370639D02*
X195929361Y-110135895D01*
X183429361Y-120045639D02*
X186329361Y-117145639D01*
X120719361Y-82345639D02*
X122794361Y-84420639D01*
X158304361Y-86670639D02*
X158304361Y-82645639D01*
X130829361Y-82170639D02*
X125044361Y-82170639D01*
X167354362Y-86495639D02*
X168704360Y-86495639D01*
X194889105Y-109095639D02*
X187191861Y-109095639D01*
X162354361Y-84670639D02*
X164191861Y-84670639D01*
X167054361Y-87533139D02*
X167054361Y-86795640D01*
X186154361Y-106145640D02*
X186454362Y-105845639D01*
X194829361Y-117470639D02*
X186654361Y-117470639D01*
X112216861Y-98880639D02*
X113316861Y-97780639D01*
X169004361Y-86795640D02*
X169004361Y-87533139D01*
X163329361Y-105543774D02*
X154412496Y-114460639D01*
X186535905Y-108445639D02*
X186154361Y-108064095D01*
X187191861Y-108445639D02*
X186535905Y-108445639D01*
X134329361Y-86870639D02*
X130829361Y-83370639D01*
X110321226Y-98880639D02*
X112216861Y-98880639D01*
X109676861Y-86248139D02*
X109676861Y-93670639D01*
X187191861Y-109095639D02*
X187191861Y-108445639D01*
X160354361Y-84695639D02*
X157829361Y-82170639D01*
X165907117Y-120045639D02*
X183429361Y-120045639D01*
X160354361Y-86670639D02*
X162354361Y-84670639D01*
X165591861Y-106970639D02*
X165591861Y-119730383D01*
X187191861Y-109095639D02*
X181466861Y-109095639D01*
X194829361Y-117470639D02*
X195929361Y-116370639D01*
X169654361Y-87533139D02*
X169654361Y-86795640D01*
X169004361Y-87533139D02*
X169654361Y-87533139D01*
X152516861Y-114460639D02*
X151416861Y-115560639D01*
X113579361Y-82345639D02*
X120719361Y-82345639D01*
X125044361Y-82170639D02*
X122794361Y-84420639D01*
X167054361Y-86795640D02*
X167354362Y-86495639D01*
X165591861Y-119730383D02*
X165907117Y-120045639D01*
X168704360Y-86495639D02*
X169004361Y-86795640D01*
X160354361Y-86670639D02*
X160354361Y-84695639D01*
X109676861Y-98236275D02*
X110321226Y-98880639D01*
X186654361Y-117470639D02*
X186329361Y-117145639D01*
%TO.N,GNDA*%
X182504361Y-102977183D02*
X182504361Y-104245638D01*
X172804361Y-102670639D02*
X172804361Y-97995639D01*
X172804361Y-102670639D02*
X182197817Y-102670639D01*
X189304361Y-87170639D02*
X187829361Y-88645639D01*
X189304361Y-81170639D02*
X187829361Y-79695639D01*
X187829361Y-79695639D02*
X189804361Y-79695639D01*
X193554361Y-81170639D02*
X189304361Y-81170639D01*
X172804361Y-97995639D02*
X174129361Y-96670639D01*
X174129361Y-96670639D02*
X180029361Y-96670639D01*
X182204360Y-104545639D02*
X181466861Y-104545639D01*
X189329361Y-90145639D02*
X189329361Y-90170639D01*
X182197817Y-102670639D02*
X182504361Y-102977183D01*
X189804361Y-79695639D02*
X189829361Y-79670639D01*
X182504361Y-104245638D02*
X182204360Y-104545639D01*
X187829361Y-88645639D02*
X189329361Y-90145639D01*
X193554361Y-87170639D02*
X189304361Y-87170639D01*
%TO.N,Net-(A1-GPIO17)*%
X154280483Y-99820300D02*
X153956861Y-99496678D01*
X187191861Y-106495639D02*
X188781457Y-106495639D01*
X188781457Y-106495639D02*
X188831549Y-106545731D01*
X153956861Y-99496678D02*
X153956861Y-97780639D01*
%TO.N,Net-(A1-GPIO18)*%
X187191861Y-107145639D02*
X188821042Y-107145639D01*
X188821042Y-107145639D02*
X189089524Y-107414121D01*
%TO.N,Net-(A1-3V3)*%
X118396861Y-94670639D02*
X118396861Y-94103139D01*
X171604361Y-89445639D02*
X171829361Y-89670639D01*
X119829361Y-92670639D02*
X146266861Y-92670639D01*
X185629361Y-96670639D02*
X185629361Y-96870639D01*
X177691861Y-106220639D02*
X179266861Y-107795639D01*
X181466861Y-107795639D02*
X183854362Y-107795639D01*
X128329361Y-86860639D02*
X126019361Y-89170639D01*
X187329361Y-103108139D02*
X187191861Y-103245639D01*
X186454362Y-105195639D02*
X186154361Y-104895638D01*
X186454362Y-103245639D02*
X187191861Y-103245639D01*
X152329361Y-88170639D02*
X146829361Y-93670639D01*
X119396861Y-93670639D02*
X118396861Y-94670639D01*
X118396861Y-90103139D02*
X118396861Y-96980639D01*
X183854362Y-107795639D02*
X186454362Y-105195639D01*
X187191861Y-105195639D02*
X186454362Y-105195639D01*
X171604361Y-87533139D02*
X171604361Y-89445639D01*
X118396861Y-96980639D02*
X118396861Y-94670639D01*
X146829361Y-93670639D02*
X119396861Y-93670639D01*
X119329361Y-89170639D02*
X118396861Y-90103139D01*
X185629361Y-96870639D02*
X181329361Y-101170639D01*
X126019361Y-89170639D02*
X119329361Y-89170639D01*
X187329361Y-101670639D02*
X187329361Y-103108139D01*
X186154361Y-104895638D02*
X186154361Y-103545640D01*
X146266861Y-92670639D02*
X152304361Y-86633139D01*
X186154361Y-103545640D02*
X186454362Y-103245639D01*
X179266861Y-107795639D02*
X181466861Y-107795639D01*
X118396861Y-94103139D02*
X119829361Y-92670639D01*
%TO.N,Net-(A1-GPIO16)*%
X188454361Y-107795639D02*
X188829361Y-108170639D01*
X187191861Y-107795639D02*
X188454361Y-107795639D01*
%TO.N,Net-(A1-GPIO15)*%
X128329361Y-84320639D02*
X130479361Y-84320639D01*
X156496861Y-114465639D02*
X156496861Y-116360639D01*
X130479361Y-84320639D02*
X130829361Y-84670639D01*
X163329361Y-107633139D02*
X156496861Y-114465639D01*
%TO.N,Net-(A1-GPIO14)*%
X146291861Y-81670639D02*
X146329361Y-81670639D01*
X144829361Y-83133139D02*
X146291861Y-81670639D01*
%TO.N,Net-(U1-CAPM)*%
X167791861Y-113795209D02*
X167791861Y-116895639D01*
X178742291Y-104945639D02*
X176641431Y-104945639D01*
X181466861Y-105195639D02*
X178992291Y-105195639D01*
X167791861Y-116895639D02*
X166691861Y-117995639D01*
X178992291Y-105195639D02*
X178742291Y-104945639D01*
X176641431Y-104945639D02*
X167791861Y-113795209D01*
%TO.N,Net-(U1-CAPP)*%
X181466861Y-103895639D02*
X175191861Y-103895639D01*
X175191861Y-103895639D02*
X166691861Y-112395639D01*
%TO.N,Net-(U3-K)*%
X127679361Y-71745639D02*
X128829361Y-72895639D01*
X186329361Y-72895639D02*
X187479361Y-71745639D01*
X140329361Y-72895639D02*
X141554361Y-71670639D01*
X161504361Y-75670639D02*
X195829361Y-75670639D01*
X173679361Y-71745639D02*
X174829361Y-72895639D01*
X185179361Y-71745639D02*
X186329361Y-72895639D01*
X151829361Y-72895639D02*
X152979361Y-71745639D01*
X155354361Y-86670639D02*
X155354361Y-83720639D01*
X174829361Y-72895639D02*
X175979361Y-71745639D01*
X150604361Y-71670639D02*
X151829361Y-72895639D01*
X128829361Y-72895639D02*
X129979361Y-71745639D01*
X139179361Y-71745639D02*
X140329361Y-72895639D01*
X162179361Y-71745639D02*
X163329361Y-72895639D01*
X196679361Y-71745639D02*
X197829361Y-72895639D01*
X197829361Y-73670639D02*
X197829361Y-72895639D01*
X129979361Y-71745639D02*
X139179361Y-71745639D01*
X155954361Y-83120639D02*
X155954361Y-81220639D01*
X163329361Y-72895639D02*
X164479361Y-71745639D01*
X164479361Y-71745639D02*
X173679361Y-71745639D01*
X118479361Y-71745639D02*
X127679361Y-71745639D01*
X117329361Y-72895639D02*
X118479361Y-71745639D01*
X141554361Y-71670639D02*
X150604361Y-71670639D01*
X152304361Y-83708139D02*
X155366861Y-83708139D01*
X155366861Y-83708139D02*
X155954361Y-83120639D01*
X155954361Y-81220639D02*
X161504361Y-75670639D01*
X175979361Y-71745639D02*
X185179361Y-71745639D01*
X152979361Y-71745639D02*
X162179361Y-71745639D01*
X195829361Y-75670639D02*
X197829361Y-73670639D01*
X155354361Y-83720639D02*
X155954361Y-83120639D01*
X187479361Y-71745639D02*
X196679361Y-71745639D01*
%TO.N,Net-(U2-REF)*%
X163304361Y-86670639D02*
X165804361Y-89170639D01*
X165804361Y-89170639D02*
X167329361Y-89170639D01*
X167329361Y-89170639D02*
X167704361Y-88795639D01*
X167704361Y-88795639D02*
X167704361Y-87533139D01*
%TO.N,Net-(U1-VNEG)*%
X179076605Y-105845639D02*
X178576605Y-105345639D01*
X181466861Y-105845639D02*
X179076605Y-105845639D01*
X176191861Y-111195639D02*
X180191861Y-115195639D01*
X176807117Y-105345639D02*
X176191861Y-105960895D01*
X178576605Y-105345639D02*
X176807117Y-105345639D01*
X176191861Y-105960895D02*
X176191861Y-111195639D01*
%TO.N,Net-(U1-CPVDD)*%
X173989105Y-103245639D02*
X173364105Y-103870639D01*
X181466861Y-103245639D02*
X173989105Y-103245639D01*
X169854361Y-97995639D02*
X169854361Y-102670639D01*
X168529361Y-96670639D02*
X169854361Y-97995639D01*
X173364105Y-103870639D02*
X171054361Y-103870639D01*
X171054361Y-103870639D02*
X169854361Y-102670639D01*
%TO.N,Net-(U1-LDOO)*%
X187341861Y-104695639D02*
X187191861Y-104545639D01*
X190854361Y-104695639D02*
X187341861Y-104695639D01*
X190529361Y-104370639D02*
X190854361Y-104695639D01*
X190529361Y-96670639D02*
X190529361Y-104370639D01*
%TO.N,Net-(C13-Pad2)*%
X193804361Y-104695639D02*
X193804361Y-98995639D01*
X193804361Y-98995639D02*
X196129361Y-96670639D01*
%TO.N,Net-(U1-DGND)*%
X188829361Y-103670639D02*
X188604361Y-103895639D01*
X188604361Y-103895639D02*
X187191861Y-103895639D01*
X192504361Y-114195639D02*
X186329361Y-114195639D01*
X194829361Y-111870639D02*
X192504361Y-114195639D01*
X186329361Y-114195639D02*
X186329361Y-113170639D01*
%TO.N,Net-(R2-Pad1)*%
X139904361Y-86058139D02*
X139829361Y-86133139D01*
X144829361Y-86058139D02*
X139904361Y-86058139D01*
X139829361Y-86133139D02*
X139829361Y-88370639D01*
%TO.N,Net-(U1-OUTL)*%
X182904361Y-105795638D02*
X182204360Y-106495639D01*
X182829361Y-88595639D02*
X187829361Y-93595639D01*
X182204360Y-106495639D02*
X181466861Y-106495639D01*
X187829361Y-93595639D02*
X187829361Y-97670639D01*
X187829361Y-97670639D02*
X182904361Y-102595639D01*
X182904361Y-102595639D02*
X182904361Y-105795638D01*
%TO.N,Net-(U1-OUTR)*%
X181654361Y-86217883D02*
X181654361Y-80845639D01*
X183362204Y-102703482D02*
X188229361Y-97836325D01*
X181654361Y-80845639D02*
X182829361Y-79670639D01*
X183689105Y-86533139D02*
X181969617Y-86533139D01*
X181466861Y-107145639D02*
X182204360Y-107145639D01*
X182204360Y-107145639D02*
X183362204Y-105987795D01*
X188229361Y-91073395D02*
X183689105Y-86533139D01*
X181969617Y-86533139D02*
X181654361Y-86217883D01*
X183362204Y-105987795D02*
X183362204Y-102703482D01*
X188229361Y-97836325D02*
X188229361Y-91073395D01*
%TO.N,Net-(U2-COM)*%
X156829361Y-75170639D02*
X157829361Y-75170639D01*
X135249361Y-74750639D02*
X135249361Y-72895639D01*
X158249361Y-74750639D02*
X158249361Y-72895639D01*
X157829361Y-75170639D02*
X169329361Y-75170639D01*
X180829361Y-75170639D02*
X181249361Y-74750639D01*
X169749361Y-74750639D02*
X169749361Y-72895639D01*
X122829361Y-75170639D02*
X134829361Y-75170639D01*
X168354361Y-89645639D02*
X168354361Y-87533139D01*
X122829361Y-75170639D02*
X122829361Y-73815639D01*
X134829361Y-75170639D02*
X146329361Y-75170639D01*
X122829361Y-73815639D02*
X123749361Y-72895639D01*
X181249361Y-74750639D02*
X181249361Y-72895639D01*
X112249361Y-72895639D02*
X114524361Y-75170639D01*
X146329361Y-75170639D02*
X156829361Y-75170639D01*
X156829361Y-75170639D02*
X156829361Y-77170639D01*
X169329361Y-75170639D02*
X169749361Y-74750639D01*
X146749361Y-74750639D02*
X146749361Y-72895639D01*
X156829361Y-77170639D02*
X157329361Y-77670639D01*
X169329361Y-75170639D02*
X180829361Y-75170639D01*
X168329361Y-89670639D02*
X168354361Y-89645639D01*
X192329361Y-75170639D02*
X192749361Y-74750639D01*
X157829361Y-75170639D02*
X158249361Y-74750639D01*
X192749361Y-74750639D02*
X192749361Y-72895639D01*
X180829361Y-75170639D02*
X192329361Y-75170639D01*
X134829361Y-75170639D02*
X135249361Y-74750639D01*
X146329361Y-75170639D02*
X146749361Y-74750639D01*
X114524361Y-75170639D02*
X122829361Y-75170639D01*
%TO.N,Net-(U2-CH0)*%
X171829361Y-80170639D02*
X171604361Y-80395639D01*
X171829361Y-79670639D02*
X171829361Y-80170639D01*
X171604361Y-80395639D02*
X171604361Y-81808139D01*
%TO.N,Net-(U2-CH1)*%
X170954361Y-81808139D02*
X170954361Y-80245636D01*
X170954361Y-80245636D02*
X171029358Y-80170639D01*
%TO.N,Net-(U2-CH2)*%
X170304361Y-80245645D02*
X170304361Y-81808139D01*
X170229355Y-80170639D02*
X170304361Y-80245645D01*
X170229355Y-79670639D02*
X170229355Y-80170639D01*
%TO.N,Net-(U2-CH3)*%
X169654361Y-81808139D02*
X169654361Y-80395648D01*
X169654361Y-80395648D02*
X169429352Y-80170639D01*
%TO.N,Net-(U2-CH4)*%
X169004361Y-81070640D02*
X169004361Y-81808139D01*
X168829352Y-80895631D02*
X169004361Y-81070640D01*
X168829352Y-79673069D02*
X168829352Y-80895631D01*
X168814773Y-79658490D02*
X168829352Y-79673069D01*
%TO.N,Net-(U2-CH5)*%
X168354361Y-81808139D02*
X168354361Y-80326939D01*
X168354361Y-80326939D02*
X168212662Y-80185240D01*
%TO.N,Net-(U2-CH6)*%
X167605412Y-81709190D02*
X167605412Y-79664421D01*
X167704361Y-81808139D02*
X167605412Y-81709190D01*
%TO.N,Net-(U2-CH7)*%
X167054361Y-81808139D02*
X167054361Y-80395639D01*
X167054361Y-80395639D02*
X166829361Y-80170639D01*
%TO.N,Net-(A1-VSYS)*%
X113579361Y-88845639D02*
X113579361Y-89420639D01*
X110776861Y-92223139D02*
X110776861Y-96980639D01*
X115464361Y-86960639D02*
X113579361Y-88845639D01*
X113579361Y-89420639D02*
X110776861Y-92223139D01*
X122794361Y-86960639D02*
X115464361Y-86960639D01*
%TO.N,Net-(J4-Pin_2)*%
X182854361Y-85695639D02*
X182829361Y-85670639D01*
X187829361Y-85695639D02*
X182854361Y-85695639D01*
X194619361Y-85695639D02*
X187829361Y-85695639D01*
X196094361Y-87170639D02*
X194619361Y-85695639D01*
%TO.N,Net-(J5-Pin_2)*%
X182879361Y-82645639D02*
X182829361Y-82595639D01*
X196094361Y-81170639D02*
X194619361Y-82645639D01*
X194619361Y-82645639D02*
X187829361Y-82645639D01*
X187829361Y-82645639D02*
X182879361Y-82645639D01*
%TO.N,Net-(J6-Pin_2)*%
X134329361Y-84330639D02*
X135451861Y-83208139D01*
X135451861Y-83208139D02*
X139829361Y-83208139D01*
%TD*%
M02*
